<svg width="18" height="18" viewBox="0 0 18 18" fill="none" xmlns="http://www.w3.org/2000/svg">
<path fill-rule="evenodd" clip-rule="evenodd" d="M12.5716 12.9339C12.7677 12.693 13.122 12.6567 13.363 12.8529C13.8928 13.2842 14.3567 13.7396 14.6836 14.3017C15.0164 14.8742 15.1875 15.523 15.1875 16.3125C15.1875 16.6232 14.9357 16.875 14.625 16.875C14.3144 16.875 14.0625 16.6232 14.0625 16.3125C14.0625 15.6982 13.9329 15.2487 13.711 14.8672C13.4832 14.4753 13.1385 14.1208 12.6527 13.7253C12.4118 13.5292 12.3755 13.1749 12.5716 12.9339Z" fill="#2E4A3A"/>
<path fill-rule="evenodd" clip-rule="evenodd" d="M5.42841 12.9339C5.62454 13.1749 5.58824 13.5292 5.34732 13.7253C4.86145 14.1209 4.51682 14.4752 4.28899 14.8671C4.06718 15.2486 3.9375 15.698 3.9375 16.3125C3.9375 16.6232 3.68566 16.875 3.375 16.875C3.06434 16.875 2.8125 16.6232 2.8125 16.3125C2.8125 15.5229 2.98359 14.8741 3.31644 14.3016C3.6433 13.7394 4.10726 13.2842 4.63705 12.8529C4.87797 12.6567 5.23227 12.693 5.42841 12.9339Z" fill="#2E4A3A"/>
<path fill-rule="evenodd" clip-rule="evenodd" d="M14.625 3.375C14.9357 3.375 15.1875 3.62684 15.1875 3.9375C15.1875 5.33682 15.0943 6.7399 13.8552 7.74872C13.6142 7.94485 13.2599 7.90855 13.0638 7.66763C12.8677 7.42672 12.904 7.07242 13.1449 6.87628C13.9371 6.23135 14.0625 5.34576 14.0625 3.9375C14.0625 3.62684 14.3144 3.375 14.625 3.375Z" fill="#2E4A3A"/>
<path fill-rule="evenodd" clip-rule="evenodd" d="M3.375 3.375C3.68566 3.375 3.9375 3.62684 3.9375 3.9375C3.9375 5.33697 4.05968 6.15838 4.85513 6.80597C5.09605 7.00211 5.13235 7.35641 4.93622 7.59732C4.74008 7.83824 4.38578 7.87454 4.14487 7.67841C2.90899 6.67225 2.8125 5.34631 2.8125 3.9375C2.8125 3.62684 3.06434 3.375 3.375 3.375Z" fill="#2E4A3A"/>
<path fill-rule="evenodd" clip-rule="evenodd" d="M12.9375 10.1299C12.9375 9.81922 13.1893 9.56738 13.5 9.56738H16.3125C16.6232 9.56738 16.875 9.81922 16.875 10.1299C16.875 10.4405 16.6232 10.6924 16.3125 10.6924H13.5C13.1893 10.6924 12.9375 10.4405 12.9375 10.1299Z" fill="#2E4A3A"/>
<path fill-rule="evenodd" clip-rule="evenodd" d="M1.125 10.1299C1.125 9.81922 1.37684 9.56738 1.6875 9.56738H4.5C4.81066 9.56738 5.0625 9.81922 5.0625 10.1299C5.0625 10.4405 4.81066 10.6924 4.5 10.6924H1.6875C1.37684 10.6924 1.125 10.4405 1.125 10.1299Z" fill="#2E4A3A"/>
<path fill-rule="evenodd" clip-rule="evenodd" d="M9 6.1875C9.31066 6.1875 9.5625 6.43934 9.5625 6.75V15.75C9.5625 16.0607 9.31066 16.3125 9 16.3125C8.68934 16.3125 8.4375 16.0607 8.4375 15.75V6.75C8.4375 6.43934 8.68934 6.1875 9 6.1875Z" fill="#2E4A3A"/>
<path fill-rule="evenodd" clip-rule="evenodd" d="M6.13941 5.79102C5.47059 6.24842 5.0625 6.92171 5.0625 7.87207V11.2495C5.0625 13.4139 6.83566 15.187 9 15.187C11.1643 15.187 12.9375 13.4139 12.9375 11.2495V7.87207C12.9375 6.81629 12.5203 6.1531 11.8699 5.72695C11.1838 5.27746 10.1845 5.05957 9 5.05957C7.83403 5.05957 6.8321 5.3173 6.13941 5.79102ZM5.50434 4.86241C6.4429 4.22054 7.69097 3.93457 9 3.93457C10.2905 3.93457 11.5412 4.16668 12.4864 4.78594C13.4672 5.42854 14.0625 6.45285 14.0625 7.87207V11.2495C14.0625 14.0352 11.7857 16.312 9 16.312C6.21434 16.312 3.9375 14.0352 3.9375 11.2495V7.87207C3.9375 6.53481 4.54191 5.5206 5.50434 4.86241Z" fill="#2E4A3A"/>
<path fill-rule="evenodd" clip-rule="evenodd" d="M8.99114 1.125L8.99262 1.125H9.00738L9.00886 1.125C9.90089 1.12734 10.7557 1.48274 11.3865 2.1135C12.0173 2.74427 12.3727 3.59911 12.375 4.49114C12.375 4.499 12.3749 4.50686 12.3746 4.51472C12.3652 4.75337 12.3139 4.98851 12.223 5.20938C12.1048 5.49667 11.7761 5.63375 11.4888 5.51554C11.2015 5.39734 11.0644 5.06862 11.1826 4.78132C11.2219 4.6859 11.2446 4.58453 11.2499 4.48154C11.2451 3.89139 11.0086 3.32655 10.591 2.909C10.1707 2.48865 9.60105 2.25174 9.00661 2.25H8.99339C8.39895 2.25174 7.82935 2.48865 7.409 2.909C6.99212 3.32588 6.75567 3.88956 6.75009 4.47867C6.75774 4.60168 6.7849 4.72273 6.83057 4.83727C6.94565 5.12583 6.805 5.45304 6.51644 5.56811C6.22788 5.68319 5.90067 5.54254 5.7856 5.25398C5.6923 5.02002 5.63827 4.77226 5.6257 4.52069C5.62521 4.51085 5.62498 4.501 5.625 4.49114C5.62734 3.59911 5.98274 2.74427 6.6135 2.1135C7.24427 1.48274 8.09911 1.12734 8.99114 1.125Z" fill="#2E4A3A"/>
</svg>
