<svg width="18" height="18" viewBox="0 0 18 18" fill="none" xmlns="http://www.w3.org/2000/svg">
<path fill-rule="evenodd" clip-rule="evenodd" d="M10.9961 2.80045C12.112 1.69248 13.8544 1.39849 15.2163 1.98154L15.2183 1.98243L15.2204 1.98333C15.3087 2.022 15.3863 2.08166 15.4464 2.15711C15.5064 2.23255 15.5472 2.32153 15.565 2.41634C15.5829 2.51113 15.5773 2.60884 15.5488 2.70097C15.5204 2.79303 15.4699 2.87676 15.4018 2.94491C15.4017 2.94496 15.4016 2.94502 15.4016 2.94508L13.6137 4.73291C13.6136 4.73308 13.6134 4.73325 13.6132 4.73342C13.5405 4.80682 13.4997 4.90598 13.4997 5.00933C13.4997 5.11272 13.5405 5.21191 13.6133 5.28532C13.6135 5.28546 13.6136 5.2856 13.6137 5.28574L14.4017 6.07403C14.4019 6.07421 14.402 6.07439 14.4022 6.07458C14.4757 6.14733 14.575 6.18815 14.6785 6.18815C14.7819 6.18815 14.8812 6.14733 14.9547 6.07457C14.9549 6.07439 14.9551 6.07421 14.9552 6.07403L16.7518 4.27679L16.752 4.27657L16.7522 4.27634C16.8186 4.21013 16.8997 4.16061 16.9888 4.13184C17.078 4.10306 17.1728 4.09587 17.2653 4.11083C17.3578 4.1258 17.4454 4.16249 17.521 4.21793C17.5966 4.27336 17.658 4.34592 17.7 4.42967L17.7017 4.43292L17.7033 4.4362C18.0018 5.05009 18.0652 5.83741 17.9363 6.58111C17.8065 7.33054 17.4696 8.10509 16.8855 8.68046C15.7811 9.76846 14.1972 9.79167 12.933 9.45388L12.9325 9.45376C12.8646 9.43555 12.793 9.4362 12.7255 9.45564C12.6579 9.47507 12.5969 9.51255 12.5491 9.56404L12.5484 9.56475L6.85113 15.6538C6.67109 15.8537 6.45246 16.0152 6.20838 16.1284C5.96224 16.2427 5.69539 16.3055 5.42415 16.3131C5.15291 16.3206 4.88297 16.2728 4.63084 16.1725C4.3787 16.0722 4.14967 15.9216 3.95775 15.7297C3.76583 15.5379 3.61505 15.309 3.51462 15.0569C3.41419 14.8048 3.36623 14.5349 3.37368 14.2636C3.38112 13.9924 3.4438 13.7255 3.55789 13.4793C3.6712 13.2348 3.83284 13.0158 4.03306 12.8355L10.1122 7.1865L10.1128 7.18595C10.1652 7.13758 10.2031 7.07567 10.2225 7.00707C10.2419 6.93847 10.242 6.86585 10.2227 6.79723L10.2226 6.79717C9.86432 5.52223 9.87655 3.91187 10.9961 2.80051M13.9362 2.81946C13.171 2.76883 12.3575 3.03407 11.7887 3.59881L11.7887 3.59887C11.0886 4.29383 10.9975 5.39606 11.3057 6.49272M13.9362 2.81946L12.8166 3.93906L12.8161 3.93961C12.5334 4.22386 12.3747 4.60844 12.3747 5.00933C12.3747 5.41021 12.5334 5.7948 12.8161 6.07904L12.8166 6.07955L13.6081 6.8714L13.6088 6.87209C13.8931 7.15459 14.2776 7.31315 14.6785 7.31315C15.0793 7.31315 15.4638 7.15459 15.7482 6.87209L15.7488 6.87141L16.8728 5.74705C16.8803 5.9493 16.8665 6.16609 16.8279 6.389C16.729 6.95959 16.4784 7.50235 16.096 7.87901C15.4019 8.56279 14.312 8.65778 13.2238 8.36712C12.9584 8.29597 12.6786 8.29851 12.4145 8.37447C12.1507 8.45034 11.9126 8.59657 11.7257 8.79747C11.7254 8.79773 11.7252 8.79799 11.725 8.79824L6.02138 14.894L6.01718 14.8987C5.93826 14.9869 5.84218 15.0581 5.73481 15.108C5.62745 15.1578 5.51104 15.1852 5.39272 15.1885C5.27439 15.1918 5.15664 15.1709 5.04665 15.1272C4.93667 15.0834 4.83676 15.0177 4.75304 14.934C4.66932 14.8504 4.60354 14.7505 4.55974 14.6405C4.51593 14.5306 4.49501 14.4128 4.49825 14.2945C4.5015 14.1762 4.52884 14.0598 4.57861 13.9524C4.62838 13.845 4.69954 13.7488 4.78772 13.6699L4.79158 13.6664L10.8762 8.01227C10.8765 8.01204 10.8767 8.01181 10.877 8.01158C11.0813 7.82258 11.2294 7.58085 11.3051 7.31302C11.3809 7.04488 11.3811 6.76102 11.3057 6.49277" fill="#2E4A3A"/>
<path fill-rule="evenodd" clip-rule="evenodd" d="M7.7683 7.84702C7.75794 7.85168 7.7485 7.8582 7.74047 7.86625C7.73868 7.86804 7.73688 7.86982 7.73506 7.87159L7.18643 8.40658C7.17807 8.41506 7.17065 8.42441 7.16428 8.43445C7.1588 8.44775 7.15704 8.46233 7.15927 8.47663C7.16179 8.4928 7.16928 8.50777 7.18069 8.51947C7.2367 8.57416 7.29941 8.63565 7.37465 8.70943C7.56301 8.89411 7.82994 9.15584 8.26715 9.58104C8.48985 9.79764 8.49481 10.1538 8.27822 10.3765C8.06163 10.5992 7.70551 10.6041 7.4828 10.3875C7.04387 9.96066 6.77301 9.69508 6.58444 9.51018C6.50901 9.43622 6.44675 9.37517 6.39216 9.32187C6.391 9.32074 6.38984 9.3196 6.38869 9.31846C6.20671 9.13766 6.08724 8.90346 6.04771 8.65C6.00817 8.39655 6.05064 8.13709 6.16892 7.90946C6.17144 7.90463 6.17402 7.89983 6.17667 7.89507C6.23549 7.78948 6.30883 7.69267 6.39455 7.60747C6.39583 7.6062 6.39711 7.60493 6.3984 7.60368L6.94735 7.06838C7.05263 6.96367 7.17617 6.87906 7.31189 6.81876L7.31261 6.81844C7.532 6.72133 7.77548 6.69226 8.01157 6.73499C8.2472 6.77764 8.46465 6.88986 8.63593 7.05716C8.82812 7.24371 9.17923 7.58532 9.81054 8.20049C10.033 8.41729 10.0377 8.77342 9.82085 8.99591C9.60404 9.21841 9.24792 9.22303 9.02542 9.00622C8.39333 8.3903 8.04281 8.04926 7.85163 7.8637L7.84989 7.862C7.83928 7.85161 7.82581 7.84465 7.8112 7.84201C7.79672 7.83939 7.78179 7.84113 7.7683 7.84702Z" fill="#2E4A3A"/>
<path fill-rule="evenodd" clip-rule="evenodd" d="M10.7352 9.85805C10.9468 9.63061 11.3027 9.61778 11.5301 9.82939C12.9713 11.1702 14.7054 12.7468 15.3733 13.3032C15.4842 13.3949 15.5748 13.5088 15.6392 13.6375C15.704 13.7667 15.7409 13.908 15.7477 14.0524C15.7545 14.1968 15.7311 14.341 15.6788 14.4757C15.6266 14.6103 15.5468 14.7325 15.4446 14.8345C15.4445 14.8346 15.4444 14.8347 15.4443 14.8348L14.2714 16.0074C14.2702 16.0085 14.2691 16.0097 14.2679 16.0108C14.2676 16.0112 14.2672 16.0115 14.2668 16.0119C14.1645 16.1119 14.0428 16.19 13.9093 16.2415C13.7758 16.293 13.6332 16.3168 13.4902 16.3115C13.3472 16.3061 13.2068 16.2717 13.0776 16.2104C12.9483 16.149 12.8328 16.062 12.7383 15.9546C12.7369 15.9531 12.7356 15.9516 12.7343 15.9501C12.1637 15.2881 10.6063 13.6125 9.26405 12.2101C9.04924 11.9857 9.05704 11.6296 9.28147 11.4148C9.5059 11.2 9.86197 11.2078 10.0768 11.4322C11.3807 12.7945 12.9049 14.4325 13.5334 15.1544L14.5811 14.107C13.842 13.4829 12.1534 11.9459 10.7638 10.653C10.5364 10.4414 10.5235 10.0855 10.7352 9.85805Z" fill="#2E4A3A"/>
<path fill-rule="evenodd" clip-rule="evenodd" d="M7.04326 2.81997C6.70577 2.84302 6.37356 2.91931 6.05907 3.04643L6.05837 3.04671C4.74624 3.57504 3.96943 4.30828 3.78532 4.48862C3.56922 4.70215 3.36788 4.93007 3.18267 5.17082C3.18294 5.19429 3.18512 5.22941 3.1897 5.29287C3.18991 5.29567 3.19012 5.29858 3.19034 5.3016C3.19559 5.37358 3.20513 5.50421 3.18685 5.63694C3.16562 5.79109 3.10295 5.98584 2.93384 6.14932C2.93273 6.15038 2.93162 6.15145 2.93051 6.1525C2.7062 6.36581 2.41649 6.42821 2.23706 6.44838C2.10195 6.46484 1.96484 6.45075 1.83586 6.40713C1.83177 6.40574 1.82769 6.40433 1.82363 6.40289L1.29376 6.92069L2.40094 8.00134L2.90295 7.51112C2.89033 7.48754 2.87858 7.46346 2.86775 7.43893C2.81123 7.31092 2.78062 7.17298 2.77769 7.03308C2.77477 6.89318 2.79958 6.75409 2.8507 6.62383C2.90182 6.49357 2.97823 6.37473 3.07553 6.27416C3.07653 6.27312 3.07754 6.27209 3.07855 6.27106C3.1433 6.20516 3.21719 6.14892 3.29795 6.10407C3.59324 5.93729 3.93284 5.8657 4.27038 5.89915C4.27209 5.89932 4.2738 5.8995 4.27551 5.89968C4.46539 5.92026 4.78156 5.99508 5.15022 6.21892C5.46153 6.40794 5.93971 6.77102 6.6059 7.41517L6.78767 7.23559C6.34301 6.78045 6.04826 6.44225 5.86703 6.15104C5.75433 5.96995 5.67669 5.79406 5.63391 5.60706C5.59159 5.42205 5.59004 5.25417 5.59721 5.10541L5.59725 5.10465C5.63607 4.32029 5.89408 3.63196 6.54159 3.11954L6.54343 3.11809C6.68213 3.00926 6.85413 2.90787 7.04326 2.81997ZM8.80696 3.66172C8.63161 3.62513 8.45187 3.61411 8.27334 3.62899L8.27244 3.62907C7.90101 3.65944 7.44461 3.84147 7.23878 4.00247C6.90964 4.26336 6.74816 4.60983 6.72088 5.16003C6.71613 5.25914 6.72056 5.31237 6.73059 5.35619C6.74017 5.39809 6.76127 5.45877 6.82216 5.55661C6.95695 5.77319 7.23521 6.09462 7.82601 6.68559C7.83326 6.69285 7.84032 6.70031 7.84717 6.70796C7.98451 6.86126 8.05699 7.06189 8.04936 7.26758C8.04178 7.47164 7.95594 7.66489 7.80974 7.80728L7.17102 8.43828L7.16951 8.43977C7.02102 8.58537 6.8219 8.6678 6.61395 8.66976C6.40599 8.67172 6.20536 8.59306 6.05414 8.45029C6.05023 8.4466 6.04637 8.44284 6.04256 8.43904C5.28848 7.68495 4.80709 7.32672 4.56634 7.18054C4.35209 7.05045 4.19759 7.0232 4.1566 7.01839C4.09015 7.01217 4.02349 7.01879 3.96015 7.03749C4.02341 7.10227 4.07402 7.17837 4.10931 7.26189C4.14705 7.35122 4.1665 7.44721 4.1665 7.54418C4.1665 7.64115 4.14705 7.73715 4.10931 7.82648C4.07166 7.91558 4.01657 7.99624 3.94728 8.06373C3.9471 8.0639 3.94693 8.06408 3.94675 8.06425L2.91716 9.06966C2.84936 9.13703 2.76895 9.1904 2.6805 9.22671C2.59189 9.26309 2.49699 9.28162 2.40123 9.28126C2.21193 9.28152 2.02976 9.20856 1.89294 9.07751C1.8922 9.07681 1.89146 9.0761 1.89073 9.07538C1.8902 9.07487 1.88966 9.07435 1.88913 9.07383L0.216748 7.44153C0.21164 7.43654 0.206626 7.43146 0.201711 7.42628C0.0722033 7.28987 0 7.10896 0 6.92086C0 6.73277 0.0722033 6.55185 0.201711 6.41544L0.609643 6.80274L0.216505 6.40043L1.24925 5.39122C1.24953 5.39094 1.24982 5.39066 1.25011 5.39038C1.31937 5.32251 1.40149 5.26916 1.49167 5.23346C1.57926 5.19878 1.67271 5.18145 1.76684 5.18238C1.86846 5.18259 1.96797 5.2039 2.05946 5.24398C2.05709 5.18536 2.0567 5.11742 2.06249 5.04919C2.07439 4.90872 2.11426 4.72614 2.23947 4.55279C2.24176 4.54963 2.24408 4.54649 2.24643 4.54337C2.47508 4.24029 2.72546 3.95423 2.99557 3.68743L2.99714 3.68587C3.23628 3.45152 4.13528 2.60834 5.63786 2.00326C6.15521 1.7942 6.70806 1.68699 7.26606 1.6875C8.21169 1.68759 8.95549 2.09937 9.26972 2.38399C9.27313 2.38708 9.27651 2.39021 9.27984 2.39339C9.43554 2.54153 9.57807 2.70292 9.70583 2.87573C9.85361 3.07563 9.85265 3.34883 9.70346 3.54769C9.55427 3.74654 9.29224 3.82388 9.05898 3.73791C8.97656 3.70753 8.8924 3.68209 8.80696 3.66172ZM2.23473 5.42611L1.88335 5.79235L2.24013 5.43169L2.23473 5.42611ZM2.24264 5.42915L2.23725 5.42348L2.27271 5.38653C2.27483 5.38846 2.2769 5.39043 2.27894 5.39245L2.24264 5.42915Z" fill="#2E4A3A"/>
</svg>
