<svg width="18" height="18" viewBox="0 0 18 18" fill="none" xmlns="http://www.w3.org/2000/svg">
<path fill-rule="evenodd" clip-rule="evenodd" d="M4.17342 1.125H13.8265C14.0196 1.12522 14.2094 1.1748 14.378 1.26904C14.5464 1.36321 14.688 1.49886 14.7893 1.66311C14.7894 1.66322 14.7894 1.66332 14.7895 1.66343L17.2666 5.66178C17.3886 5.85918 17.4477 6.08905 17.4359 6.32084C17.4242 6.55262 17.3422 6.77534 17.2008 6.95939L17.2002 6.96021L9.89732 16.4323C9.89716 16.4325 9.89701 16.4327 9.89686 16.4329C9.79132 16.5703 9.65562 16.6816 9.50024 16.7583C9.34464 16.835 9.17346 16.8749 8.99995 16.8749C8.82644 16.8749 8.65526 16.835 8.49965 16.7583C8.34427 16.6816 8.20858 16.5703 8.10304 16.4329C8.10288 16.4327 8.10273 16.4325 8.10258 16.4323L0.79971 6.96021L1.24518 6.61676L0.799082 6.95939C0.657713 6.77534 0.575709 6.55262 0.563965 6.32084C0.552221 6.08905 0.611296 5.85919 0.733336 5.66178L3.21038 1.66343C3.21052 1.66322 3.21065 1.663 3.21078 1.66279C3.31207 1.49868 3.45358 1.36315 3.62191 1.26904C3.79046 1.1748 3.98031 1.12522 4.17342 1.125ZM1.69118 6.27399C1.69121 6.27403 1.69125 6.27408 1.69128 6.27412L8.99437 15.7465L8.99521 15.7476C8.99576 15.7483 8.99648 15.7489 8.9973 15.7493C8.99813 15.7497 8.99903 15.7499 8.99995 15.7499C9.00086 15.7499 9.00177 15.7497 9.00259 15.7493C9.00342 15.7489 9.00413 15.7483 9.00469 15.7476L9.00553 15.7465L16.3086 6.27412C16.3087 6.27407 16.3087 6.27401 16.3087 6.27396C16.3109 6.27105 16.3122 6.26755 16.3124 6.26391C16.3126 6.2602 16.3116 6.25653 16.3097 6.25337L13.8318 2.25368C13.8311 2.25255 13.8301 2.25163 13.829 2.25098C13.8278 2.25035 13.8266 2.25001 13.8253 2.25H4.17462C4.17332 2.25001 4.17205 2.25035 4.17092 2.25098C4.16977 2.25163 4.1688 2.25255 4.16811 2.25368L4.16742 2.25479L1.69023 6.25337C1.69022 6.25339 1.69021 6.25341 1.69019 6.25343C1.68827 6.25658 1.68734 6.26023 1.68752 6.26391C1.68771 6.26756 1.68898 6.27107 1.69118 6.27399Z" fill="#2E4A3A"/>
<path fill-rule="evenodd" clip-rule="evenodd" d="M1.125 6.1875C1.125 5.87684 1.37684 5.625 1.6875 5.625H16.3125C16.6232 5.625 16.875 5.87684 16.875 6.1875C16.875 6.49816 16.6232 6.75 16.3125 6.75H1.6875C1.37684 6.75 1.125 6.49816 1.125 6.1875Z" fill="#2E4A3A"/>
<path fill-rule="evenodd" clip-rule="evenodd" d="M8.66253 1.23753C8.91106 1.05114 9.26364 1.1015 9.45003 1.35003L12.2413 5.07168L13.5455 2.02845C13.6679 1.74291 13.9986 1.61064 14.2841 1.73301C14.5697 1.85539 14.7019 2.18607 14.5796 2.47161L12.8921 6.40911C12.8129 6.59372 12.6414 6.72213 12.442 6.74603C12.2426 6.76994 12.0455 6.68571 11.925 6.52503L8.55003 2.02503C8.36364 1.7765 8.414 1.42393 8.66253 1.23753Z" fill="#2E4A3A"/>
<path fill-rule="evenodd" clip-rule="evenodd" d="M9.33752 1.23753C9.58605 1.42393 9.63642 1.7765 9.45002 2.02503L6.07502 6.52503C5.95452 6.68571 5.75749 6.76994 5.55807 6.74603C5.35866 6.72213 5.18712 6.59372 5.108 6.40911L3.4205 2.47161C3.29813 2.18607 3.4304 1.85539 3.71594 1.73301C4.00148 1.61064 4.33217 1.74291 4.45454 2.02845L5.75878 5.07168L8.55002 1.35003C8.73642 1.1015 9.08899 1.05114 9.33752 1.23753Z" fill="#2E4A3A"/>
<path fill-rule="evenodd" clip-rule="evenodd" d="M5.43782 5.65722C5.73077 5.55383 6.05207 5.70749 6.15546 6.00044L9.53046 15.5629C9.63386 15.8559 9.48019 16.1772 9.18724 16.2806C8.89429 16.384 8.57299 16.2303 8.4696 15.9374L5.0946 6.37486C4.99121 6.08192 5.14487 5.76062 5.43782 5.65722Z" fill="#2E4A3A"/>
<path fill-rule="evenodd" clip-rule="evenodd" d="M12.5622 5.65722C12.8552 5.76062 13.0089 6.08192 12.9055 6.37486L9.53046 15.9374C9.42707 16.2303 9.10577 16.384 8.81282 16.2806C8.51987 16.1772 8.36621 15.8559 8.4696 15.5629L11.8446 6.00044C11.948 5.70749 12.2693 5.55383 12.5622 5.65722Z" fill="#2E4A3A"/>
</svg>
