<svg width="18" height="18" viewBox="0 0 18 18" fill="none" xmlns="http://www.w3.org/2000/svg">
<path fill-rule="evenodd" clip-rule="evenodd" d="M1.125 15.1875V11.8125H2.25V15.1866C2.25106 15.4849 2.37002 15.7706 2.58094 15.9816C2.79188 16.1925 3.07767 16.3115 3.37596 16.3125H14.624C14.9223 16.3115 15.2081 16.1925 15.4191 15.9816C15.63 15.7706 15.749 15.4848 15.75 15.1865V11.8125H16.875V15.1875L16.875 15.1891C16.8733 15.7849 16.6358 16.3558 16.2146 16.7771C15.7933 17.1983 15.2224 17.4358 14.6266 17.4375L14.625 17.4375H3.375L3.37337 17.4375C2.7776 17.4358 2.20672 17.1983 1.78544 16.7771C1.36417 16.3558 1.12673 15.7849 1.125 15.1891L1.125 15.1875Z" fill="#2E4A3A"/>
<path fill-rule="evenodd" clip-rule="evenodd" d="M1.125 11.8125C1.125 11.5018 1.37684 11.25 1.6875 11.25H6.75C7.06066 11.25 7.3125 11.5018 7.3125 11.8125C7.3125 12.1232 7.06066 12.375 6.75 12.375H1.6875C1.37684 12.375 1.125 12.1232 1.125 11.8125Z" fill="#2E4A3A"/>
<path fill-rule="evenodd" clip-rule="evenodd" d="M10.6875 11.8125C10.6875 11.5018 10.9393 11.25 11.25 11.25H16.3125C16.6232 11.25 16.875 11.5018 16.875 11.8125C16.875 12.1232 16.6232 12.375 16.3125 12.375H11.25C10.9393 12.375 10.6875 12.1232 10.6875 11.8125Z" fill="#2E4A3A"/>
<path fill-rule="evenodd" clip-rule="evenodd" d="M6.75 11.25C7.06066 11.25 7.3125 11.5018 7.3125 11.8125C7.3125 12.2601 7.49029 12.6893 7.80676 13.0057C8.12322 13.3222 8.55245 13.5 9 13.5C9.44755 13.5 9.87677 13.3222 10.1932 13.0057C10.5097 12.6893 10.6875 12.2601 10.6875 11.8125C10.6875 11.5018 10.9393 11.25 11.25 11.25C11.5607 11.25 11.8125 11.5018 11.8125 11.8125C11.8125 12.5584 11.5162 13.2738 10.9887 13.8012C10.4613 14.3287 9.74592 14.625 9 14.625C8.25408 14.625 7.53871 14.3287 7.01126 13.8012C6.48382 13.2738 6.1875 12.5584 6.1875 11.8125C6.1875 11.5018 6.43934 11.25 6.75 11.25Z" fill="#2E4A3A"/>
<path fill-rule="evenodd" clip-rule="evenodd" d="M3.01995 1.05268C3.42677 0.714707 3.94055 0.5625 4.5 0.5625H13.5C14.0365 0.5625 14.5479 0.702982 14.9596 1.03358C15.3687 1.36206 15.6264 1.83583 15.7363 2.40634L16.856 6.60506C16.8686 6.65234 16.875 6.70107 16.875 6.75V10.125L16.875 10.1266C16.8733 10.7224 16.6358 11.2933 16.2146 11.7146C15.7933 12.1358 15.2224 12.3733 14.6266 12.375L14.625 12.375H3.375L3.37337 12.375C2.7776 12.3733 2.20672 12.1358 1.78544 11.7146C1.36417 11.2933 1.12673 10.7224 1.125 10.1266L1.125 10.125V6.75C1.125 6.70107 1.13138 6.65234 1.14399 6.60506L2.26412 2.40457C2.37307 1.85755 2.61845 1.38623 3.01995 1.05268ZM3.73884 1.91802C3.57404 2.05493 3.43379 2.27914 3.36488 2.63748C3.36238 2.65048 3.35942 2.66339 3.35601 2.67619L2.25 6.82371V10.1241C2.25106 10.4224 2.37002 10.7081 2.58094 10.9191C2.79188 11.13 3.07767 11.249 3.37596 11.25H14.624C14.9223 11.249 15.2081 11.13 15.4191 10.9191C15.63 10.7081 15.749 10.4223 15.75 10.124V6.82371L14.644 2.67619C14.6402 2.66214 14.637 2.64796 14.6344 2.63368C14.5661 2.26501 14.4209 2.04379 14.2552 1.91076C14.0868 1.77553 13.8424 1.6875 13.5 1.6875H4.5C4.14539 1.6875 3.90331 1.78139 3.73884 1.91802Z" fill="#2E4A3A"/>
<path fill-rule="evenodd" clip-rule="evenodd" d="M1.125 6.75C1.125 6.43934 1.37684 6.1875 1.6875 6.1875H6.75C7.06066 6.1875 7.3125 6.43934 7.3125 6.75C7.3125 7.06066 7.06066 7.3125 6.75 7.3125H1.6875C1.37684 7.3125 1.125 7.06066 1.125 6.75Z" fill="#2E4A3A"/>
<path fill-rule="evenodd" clip-rule="evenodd" d="M10.6875 6.75C10.6875 6.43934 10.9393 6.1875 11.25 6.1875H16.3125C16.6232 6.1875 16.875 6.43934 16.875 6.75C16.875 7.06066 16.6232 7.3125 16.3125 7.3125H11.25C10.9393 7.3125 10.6875 7.06066 10.6875 6.75Z" fill="#2E4A3A"/>
<path fill-rule="evenodd" clip-rule="evenodd" d="M6.75 6.1875C7.06066 6.1875 7.3125 6.43934 7.3125 6.75C7.3125 7.19755 7.49029 7.62678 7.80676 7.94324C8.12322 8.25971 8.55245 8.4375 9 8.4375C9.44755 8.4375 9.87677 8.25971 10.1932 7.94324C10.5097 7.62678 10.6875 7.19755 10.6875 6.75C10.6875 6.43934 10.9393 6.1875 11.25 6.1875C11.5607 6.1875 11.8125 6.43934 11.8125 6.75C11.8125 7.49592 11.5162 8.21129 10.9887 8.73874C10.4613 9.26618 9.74592 9.5625 9 9.5625C8.25408 9.5625 7.53871 9.26618 7.01126 8.73874C6.48382 8.21129 6.1875 7.49592 6.1875 6.75C6.1875 6.43934 6.43934 6.1875 6.75 6.1875Z" fill="#2E4A3A"/>
</svg>
