<svg width="18" height="18" viewBox="0 0 18 18" fill="none" xmlns="http://www.w3.org/2000/svg">
<path fill-rule="evenodd" clip-rule="evenodd" d="M2.39062 2.25C2.31296 2.25 2.25 2.31296 2.25 2.39062V7.17188C2.25 7.24954 2.31296 7.3125 2.39062 7.3125H7.17188C7.24954 7.3125 7.3125 7.24954 7.3125 7.17188V2.39062C7.3125 2.31296 7.24954 2.25 7.17188 2.25H2.39062ZM1.125 2.39062C1.125 1.69164 1.69164 1.125 2.39062 1.125H7.17188C7.87086 1.125 8.4375 1.69164 8.4375 2.39062V7.17188C8.4375 7.87086 7.87086 8.4375 7.17188 8.4375H2.39062C1.69164 8.4375 1.125 7.87086 1.125 7.17188V2.39062Z" fill="#2E4A3A"/>
<path fill-rule="evenodd" clip-rule="evenodd" d="M10.8281 2.25C10.7505 2.25 10.6875 2.31296 10.6875 2.39062V7.17188C10.6875 7.24954 10.7505 7.3125 10.8281 7.3125H15.6094C15.687 7.3125 15.75 7.24954 15.75 7.17188V2.39062C15.75 2.31296 15.687 2.25 15.6094 2.25H10.8281ZM9.5625 2.39062C9.5625 1.69164 10.1291 1.125 10.8281 1.125H15.6094C16.3084 1.125 16.875 1.69164 16.875 2.39062V7.17188C16.875 7.87086 16.3084 8.4375 15.6094 8.4375H10.8281C10.1291 8.4375 9.5625 7.87086 9.5625 7.17188V2.39062Z" fill="#2E4A3A"/>
<path fill-rule="evenodd" clip-rule="evenodd" d="M2.39062 10.6875C2.31296 10.6875 2.25 10.7505 2.25 10.8281V15.6094C2.25 15.687 2.31296 15.75 2.39062 15.75H7.17188C7.24954 15.75 7.3125 15.687 7.3125 15.6094V10.8281C7.3125 10.7505 7.24954 10.6875 7.17188 10.6875H2.39062ZM1.125 10.8281C1.125 10.1291 1.69164 9.5625 2.39062 9.5625H7.17188C7.87086 9.5625 8.4375 10.1291 8.4375 10.8281V15.6094C8.4375 16.3084 7.87086 16.875 7.17188 16.875H2.39062C1.69164 16.875 1.125 16.3084 1.125 15.6094V10.8281Z" fill="#2E4A3A"/>
<path fill-rule="evenodd" clip-rule="evenodd" d="M10.8281 10.6875C10.7505 10.6875 10.6875 10.7505 10.6875 10.8281V15.6094C10.6875 15.687 10.7505 15.75 10.8281 15.75H15.6094C15.687 15.75 15.75 15.687 15.75 15.6094V10.8281C15.75 10.7505 15.687 10.6875 15.6094 10.6875H10.8281ZM9.5625 10.8281C9.5625 10.1291 10.1291 9.5625 10.8281 9.5625H15.6094C16.3084 9.5625 16.875 10.1291 16.875 10.8281V15.6094C16.875 16.3084 16.3084 16.875 15.6094 16.875H10.8281C10.1291 16.875 9.5625 16.3084 9.5625 15.6094V10.8281Z" fill="#2E4A3A"/>
</svg>
