<svg width="18" height="18" viewBox="0 0 18 18" fill="none" xmlns="http://www.w3.org/2000/svg">
<path fill-rule="evenodd" clip-rule="evenodd" d="M1.6875 8.71875C1.6875 4.83586 4.83586 1.6875 8.71875 1.6875C12.6016 1.6875 15.75 4.83586 15.75 8.71875C15.75 12.6016 12.6016 15.75 8.71875 15.75C4.83586 15.75 1.6875 12.6016 1.6875 8.71875ZM8.71875 2.8125C5.45718 2.8125 2.8125 5.45718 2.8125 8.71875C2.8125 11.9803 5.45718 14.625 8.71875 14.625C11.9803 14.625 14.625 11.9803 14.625 8.71875C14.625 5.45718 11.9803 2.8125 8.71875 2.8125Z" fill="#2E4A3A"/>
<path fill-rule="evenodd" clip-rule="evenodd" d="M7.17188 7.73438C7.17188 7.42371 7.42371 7.17188 7.73438 7.17188H8.85938C9.17004 7.17188 9.42188 7.42371 9.42188 7.73438V11.8125C9.42188 12.1232 9.17004 12.375 8.85938 12.375C8.54871 12.375 8.29688 12.1232 8.29688 11.8125V8.29688H7.73438C7.42371 8.29688 7.17188 8.04504 7.17188 7.73438Z" fill="#2E4A3A"/>
<path fill-rule="evenodd" clip-rule="evenodd" d="M6.75 11.9531C6.75 11.6425 7.00184 11.3906 7.3125 11.3906H10.4062C10.7169 11.3906 10.9688 11.6425 10.9688 11.9531C10.9688 12.2638 10.7169 12.5156 10.4062 12.5156H7.3125C7.00184 12.5156 6.75 12.2638 6.75 11.9531Z" fill="#2E4A3A"/>
<path d="M8.71875 4.57031C8.53797 4.57031 8.36124 4.62392 8.21092 4.72436C8.06061 4.8248 7.94345 4.96756 7.87427 5.13458C7.80508 5.3016 7.78698 5.48539 7.82225 5.6627C7.85752 5.84001 7.94458 6.00288 8.07241 6.13071C8.20024 6.25855 8.36312 6.3456 8.54043 6.38087C8.71774 6.41614 8.90152 6.39804 9.06855 6.32886C9.23557 6.25968 9.37833 6.14252 9.47877 5.9922C9.5792 5.84188 9.63281 5.66516 9.63281 5.48438C9.63281 5.24195 9.53651 5.00946 9.36509 4.83804C9.19367 4.66662 8.96117 4.57031 8.71875 4.57031Z" fill="#2E4A3A"/>
</svg>
