<svg width="18" height="18" viewBox="0 0 18 18" fill="none" xmlns="http://www.w3.org/2000/svg">
<path fill-rule="evenodd" clip-rule="evenodd" d="M2.03261 1.70357C2.20395 1.74291 2.31746 1.84293 2.37764 1.90668C2.37767 1.90671 2.3777 1.90674 2.37773 1.90677C3.75089 3.36066 5.16607 3.75876 6.69174 4.03577C6.90593 4.07466 7.1245 4.11119 7.3467 4.14833C8.69568 4.3738 10.1782 4.62159 11.6216 5.554L11.3164 6.0265L11.6216 5.554C14.9518 7.70482 15.8876 11.3338 14.2839 14.066C13.4486 15.4891 11.8301 16.2271 10.1215 16.2931C8.40417 16.3594 6.51919 15.7565 5.03832 14.4049L5.03813 14.4047C3.02435 12.565 1.96204 9.2969 1.47632 6.68571C1.23044 5.36384 1.12377 4.16372 1.12538 3.32739C1.12617 2.92101 1.15213 2.5556 1.21978 2.29963C1.23763 2.23208 1.26247 2.15591 1.29901 2.08161C1.33243 2.01365 1.39547 1.90591 1.50953 1.81853C1.64365 1.71578 1.83092 1.65726 2.03261 1.70357ZM5.79672 13.5739C4.07 11.9964 3.0599 9.04722 2.58235 6.47998C2.34701 5.21481 2.24927 4.08711 2.25038 3.33352C3.65373 4.51602 5.10036 4.89022 6.49077 5.14267C6.72819 5.18578 6.96169 5.22531 7.19182 5.26428C8.5426 5.49299 9.77751 5.70208 11.0112 6.49899L11.0112 6.49901C13.9311 8.38484 14.5576 11.3772 13.3137 13.4965C12.7252 14.4992 11.5204 15.1133 10.0781 15.1689C8.64446 15.2243 7.05082 14.7185 5.79691 13.5741C5.79687 13.5741 5.79682 13.574 5.79678 13.574" fill="#2E4A3A"/>
<path fill-rule="evenodd" clip-rule="evenodd" d="M5.67256 8.50887C5.88556 8.28272 6.24155 8.27206 6.4677 8.48506C9.41942 11.2652 12.4468 12.8932 16.4332 13.5065C16.7402 13.5538 16.9509 13.841 16.9036 14.148C16.8564 14.4551 16.5692 14.6657 16.2621 14.6185C12.022 13.9661 8.79152 12.2192 5.69637 9.30401C5.47022 9.09101 5.45956 8.73501 5.67256 8.50887Z" fill="#2E4A3A"/>
</svg>
