<svg width="18" height="18" viewBox="0 0 18 18" fill="none" xmlns="http://www.w3.org/2000/svg">
<path fill-rule="evenodd" clip-rule="evenodd" d="M15.0651 1.20331C15.4048 1.33811 15.75 1.6786 15.75 2.17955V13.5842C15.75 14.1123 15.3646 14.4346 15.0369 14.5539C14.739 14.6623 14.2192 14.6903 13.8996 14.2777L13.8986 14.2765L13.8963 14.2737C13.8913 14.2676 13.8835 14.258 13.873 14.2452C13.8518 14.2196 13.8198 14.1812 13.7775 14.1317C13.6929 14.0326 13.5677 13.8897 13.4083 13.7174C13.0887 13.3722 12.6349 12.9132 12.097 12.4559C10.9901 11.5147 9.64975 10.6874 8.4375 10.6874H2.8125C2.51413 10.6874 2.22798 10.5688 2.017 10.3579C1.80603 10.1469 1.6875 9.86073 1.6875 9.56236V6.18736C1.6875 5.889 1.80603 5.60285 2.017 5.39187C2.22798 5.18089 2.51413 5.06237 2.8125 5.06237H8.4375C9.65058 5.06237 10.9912 4.23806 12.0979 3.30101C12.6358 2.84558 13.0895 2.38854 13.4091 2.0448C13.5685 1.8733 13.6936 1.73094 13.7782 1.63232C13.8205 1.58304 13.8526 1.54475 13.8737 1.51928C13.8842 1.50655 13.892 1.49704 13.897 1.49096C13.8991 1.48836 13.9007 1.4864 13.9018 1.48508C14.2263 1.07413 14.7327 1.07144 15.0651 1.20331ZM14.3416 13.9298L14.7806 13.5784C14.7805 13.5784 14.7805 13.5783 14.7804 13.5782C14.78 13.5786 14.7785 13.5798 14.773 13.5842C14.7513 13.6018 14.6672 13.6692 14.3416 13.9298ZM14.625 13.3918V2.37307C14.5321 2.48114 14.3995 2.63166 14.233 2.81075C13.8921 3.17748 13.4058 3.66772 12.8249 4.15958C11.694 5.1171 10.0826 6.18736 8.4375 6.18736L2.8125 6.18737L2.8125 9.56236H8.4375C10.0835 9.56236 11.6952 10.6375 12.8258 11.5988C13.4066 12.0927 13.893 12.585 14.2338 12.9532C14.3999 13.1325 14.5322 13.2833 14.625 13.3918ZM14.7798 2.18827C14.7798 2.1882 14.7799 2.18813 14.78 2.18806L14.3416 1.83572C14.6523 2.08542 14.7428 2.15826 14.7691 2.17955C14.7776 2.18642 14.7794 2.18793 14.7798 2.18827Z" fill="#2E4A3A"/>
<path fill-rule="evenodd" clip-rule="evenodd" d="M2.47188 7.26705C2.74653 7.14941 2.88267 6.83529 2.77669 6.55265C2.66761 6.26177 2.34337 6.11439 2.05249 6.22347L2.25 6.75015C2.05249 6.22347 2.05212 6.22361 2.05175 6.22375L2.051 6.22403L2.04945 6.22462L2.04617 6.22588C2.04391 6.22676 2.04149 6.22771 2.03893 6.22874C2.03382 6.23079 2.02811 6.23315 2.02184 6.23584C2.00933 6.24121 1.99456 6.24791 1.97789 6.2561C1.94459 6.27245 1.90332 6.29492 1.85694 6.32487C1.76417 6.38479 1.64973 6.47546 1.53849 6.60755C1.30822 6.88099 1.125 7.29226 1.125 7.87515C1.125 8.45804 1.30822 8.86931 1.53849 9.14275C1.64973 9.27485 1.76417 9.36552 1.85694 9.42543C1.90332 9.45539 1.94459 9.47786 1.97789 9.49421C1.99456 9.5024 2.00933 9.5091 2.02184 9.51447C2.02811 9.51716 2.03382 9.51952 2.03893 9.52157C2.04149 9.5226 2.04391 9.52355 2.04617 9.52442L2.04945 9.52569L2.051 9.52627L2.05175 9.52656C2.05212 9.5267 2.05249 9.52684 2.25 9.00015L2.05249 9.52684C2.34337 9.63592 2.66761 9.48854 2.77669 9.19766C2.88267 8.91502 2.74653 8.60089 2.47188 8.48325C2.47069 8.48254 2.46914 8.48159 2.46728 8.48039C2.45458 8.47219 2.4284 8.453 2.39901 8.4181C2.34803 8.35755 2.25 8.20633 2.25 7.87515C2.25 7.54398 2.34803 7.39275 2.39901 7.33221C2.4284 7.29731 2.45458 7.27811 2.46728 7.26992C2.46914 7.26871 2.47069 7.26776 2.47188 7.26705ZM2.44897 8.47402L2.44895 8.47401L2.4489 8.47399C2.44892 8.474 2.44895 8.47401 2.44897 8.47402Z" fill="#2E4A3A"/>
<path fill-rule="evenodd" clip-rule="evenodd" d="M15.2071 6.95476C15.2882 6.65489 15.5971 6.47758 15.897 6.55873L15.75 7.1017C15.897 6.55873 15.8972 6.55881 15.8975 6.55888L15.8981 6.55904L15.8993 6.55936L15.9018 6.56006C15.9035 6.56055 15.9055 6.5611 15.9075 6.56169C15.9116 6.56288 15.9164 6.56428 15.9216 6.5659C15.9322 6.56914 15.945 6.57329 15.9598 6.57846C15.9892 6.58875 16.0271 6.60332 16.0707 6.62314C16.1567 6.66223 16.2717 6.72489 16.3887 6.8211C16.6342 7.02312 16.875 7.36651 16.875 7.87514C16.875 8.38377 16.6342 8.72716 16.3887 8.92918C16.2717 9.02539 16.1567 9.08806 16.0707 9.12714C16.0271 9.14696 15.9892 9.16153 15.9598 9.17183C15.945 9.17699 15.9322 9.18114 15.9216 9.18438C15.9164 9.186 15.9116 9.1874 15.9075 9.18859C15.9055 9.18918 15.9035 9.18973 15.9018 9.19022L15.8993 9.19092L15.8981 9.19124L15.8975 9.1914C15.8972 9.19147 15.897 9.19155 15.75 8.64858L15.897 9.19155C15.5971 9.2727 15.2882 9.09539 15.2071 8.79552C15.1271 8.50003 15.2981 8.19579 15.59 8.10931C15.5926 8.10837 15.5978 8.10633 15.6051 8.10303C15.6246 8.09416 15.6502 8.07995 15.6739 8.06045C15.7096 8.03105 15.75 7.98772 15.75 7.87514C15.75 7.76256 15.7096 7.71923 15.6739 7.68983C15.6502 7.67033 15.6246 7.65612 15.6051 7.64725C15.5978 7.64396 15.5926 7.64191 15.59 7.64097C15.2981 7.55449 15.1271 7.25025 15.2071 6.95476Z" fill="#2E4A3A"/>
<path fill-rule="evenodd" clip-rule="evenodd" d="M9 5.0625C9.31066 5.0625 9.5625 5.31434 9.5625 5.625V10.125C9.5625 10.4357 9.31066 10.6875 9 10.6875C8.68934 10.6875 8.4375 10.4357 8.4375 10.125V5.625C8.4375 5.31434 8.68934 5.0625 9 5.0625Z" fill="#2E4A3A"/>
<path fill-rule="evenodd" clip-rule="evenodd" d="M3.9375 5.0625C4.24816 5.0625 4.5 5.31434 4.5 5.625V10.125C4.5 10.4357 4.24816 10.6875 3.9375 10.6875C3.62684 10.6875 3.375 10.4357 3.375 10.125V5.625C3.375 5.31434 3.62684 5.0625 3.9375 5.0625Z" fill="#2E4A3A"/>
<path fill-rule="evenodd" clip-rule="evenodd" d="M5.0625 9.5625C5.37316 9.5625 5.625 9.81434 5.625 10.125V15.75H7.20703L7.20721 15.75C7.14806 15.5606 7.0579 15.3419 6.95519 15.0928C6.63308 14.3116 6.1875 13.231 6.1875 11.8125C6.1875 11.5018 6.43934 11.25 6.75 11.25H7.3125V10.6875H6.75C6.43934 10.6875 6.1875 10.4357 6.1875 10.125C6.1875 9.81434 6.43934 9.5625 6.75 9.5625H7.3125C7.61087 9.5625 7.89702 9.68103 8.108 9.892C8.31897 10.103 8.4375 10.3891 8.4375 10.6875V11.25C8.4375 11.5484 8.31897 11.8345 8.108 12.0455C7.90304 12.2505 7.62714 12.3682 7.33801 12.3747C7.41914 13.2459 7.68084 13.881 7.93585 14.4998C8.05985 14.8007 8.18228 15.0978 8.28158 15.4163L8.28193 15.4174C8.33403 15.5858 8.34585 15.764 8.31643 15.9378C8.28701 16.1115 8.21719 16.276 8.11258 16.4178C8.00797 16.5596 7.87151 16.6749 7.71419 16.7543C7.55692 16.8337 7.3832 16.875 7.20703 16.875C7.20697 16.875 7.20691 16.875 7.20685 16.875H5.34375C5.11998 16.875 4.90536 16.7861 4.74713 16.6279C4.58889 16.4696 4.5 16.255 4.5 16.0312V10.125C4.5 9.81434 4.75184 9.5625 5.0625 9.5625Z" fill="#2E4A3A"/>
</svg>
