<svg width="18" height="18" viewBox="0 0 18 18" fill="none" xmlns="http://www.w3.org/2000/svg">
<path d="M11.8125 9C11.0883 9 10.3922 8.67656 9.84377 8.09297C9.31291 7.52344 8.98596 6.76055 8.92971 5.94844C8.86994 5.08359 9.13362 4.28555 9.67151 3.70547C10.2094 3.12891 10.9688 2.8125 11.8125 2.8125C12.6492 2.8125 13.4086 3.13242 13.9465 3.70898C14.4914 4.29258 14.7551 5.08711 14.6918 5.94492C14.6321 6.75703 14.3086 7.51992 13.7778 8.08945C13.2328 8.67656 12.5367 9 11.8125 9ZM11.8125 3.9375C11.2852 3.9375 10.8176 4.12734 10.4977 4.47187C10.1672 4.82695 10.016 5.30859 10.0547 5.86758C10.0934 6.42305 10.3113 6.94336 10.6699 7.32656C11.0004 7.68164 11.4082 7.875 11.8125 7.875C12.2203 7.875 12.6246 7.67812 12.9551 7.32656C13.3137 6.94336 13.5317 6.42656 13.5703 5.86758C13.609 5.32617 13.4508 4.83047 13.1203 4.47891C12.8004 4.12734 12.3328 3.9375 11.8125 3.9375Z" fill="#2E4A3A"/>
<path d="M16.4461 15.1871H7.17896C6.8731 15.1871 6.59185 15.05 6.40552 14.8109C6.21217 14.5613 6.14185 14.2238 6.2192 13.9039C6.51451 12.7156 7.24928 11.7312 8.33912 11.0527C9.30592 10.4516 10.5399 10.1211 11.809 10.1211C13.1028 10.1211 14.3051 10.4375 15.279 11.0387C16.3723 11.7102 17.1071 12.7016 17.4024 13.9039C17.4797 14.2238 17.4094 14.5613 17.2161 14.8109C17.0333 15.05 16.752 15.1871 16.4461 15.1871ZM7.3442 14.0621H16.2844C15.7044 11.9879 13.5282 11.2496 11.8126 11.2496C10.104 11.2496 7.93131 11.9879 7.3442 14.0621Z" fill="#2E4A3A"/>
<path d="M5.16795 9.14102C3.93045 9.14102 2.84412 7.99141 2.74217 6.57813C2.68943 5.85391 2.91443 5.18594 3.37147 4.69375C3.82498 4.20859 4.46131 3.94141 5.16443 3.94141C5.86404 3.94141 6.50037 4.21211 6.95389 4.70078C7.41443 5.19648 7.63943 5.86445 7.5867 6.58164C7.49178 7.99141 6.40193 9.14102 5.16795 9.14102ZM5.16795 5.06289C4.78123 5.06289 4.4367 5.20352 4.19764 5.46016C3.95154 5.72383 3.83553 6.08242 3.86717 6.49727C3.92693 7.31992 4.52107 8.01602 5.16795 8.01602C5.81482 8.01602 6.41248 7.31992 6.46873 6.49727C6.49686 6.09297 6.37732 5.72734 6.13475 5.46367C5.89568 5.20352 5.55115 5.06289 5.16795 5.06289Z" fill="#2E4A3A"/>
<path d="M5.41409 14.0629H1.46604C1.18831 14.0629 0.931668 13.9363 0.759402 13.7219C0.583621 13.4969 0.520339 13.1875 0.590652 12.8992C0.83323 11.9184 1.43792 11.1098 2.3344 10.5543C3.12542 10.0656 4.13089 9.79492 5.16448 9.79492C6.05042 9.79492 6.80628 9.94258 7.47425 10.2484C7.7555 10.3785 7.88206 10.7125 7.75198 10.9938C7.6219 11.275 7.28792 11.4016 7.00667 11.2715C6.48987 11.0359 5.8887 10.9199 5.168 10.9199C3.88479 10.9199 2.26409 11.4543 1.75081 12.9414H5.41409C5.72346 12.9414 5.97659 13.1945 5.97659 13.5039C5.97659 13.8133 5.72346 14.0629 5.41409 14.0629Z" fill="#2E4A3A"/>
</svg>
