<svg width="18" height="18" viewBox="0 0 18 18" fill="none" xmlns="http://www.w3.org/2000/svg">
<path d="M10.5094 17.0859H7.50353C7.50001 17.0859 7.4965 17.0859 7.49298 17.0859C7.04298 17.0789 6.66681 16.766 6.5754 16.3266C6.57189 16.316 6.57189 16.302 6.56837 16.2914L6.33283 14.6109H6.32931C6.04103 14.4703 5.75978 14.3086 5.49611 14.1223L3.91759 14.7586C3.91408 14.7586 3.91056 14.7621 3.90704 14.7621C3.47814 14.9238 2.9965 14.7586 2.76095 14.3613C2.76095 14.3578 2.75744 14.3578 2.75744 14.3543L1.25275 11.7527C1.02072 11.3555 1.11212 10.8492 1.4672 10.5539C1.47072 10.5504 1.47423 10.5469 1.47775 10.5434L2.82072 9.48867L2.8172 9.48516C2.80314 9.30937 2.79611 9.15117 2.79611 8.99648C2.79611 8.83828 2.80314 8.68008 2.8172 8.51133L1.48126 7.46367C1.47423 7.46016 1.47072 7.45664 1.4672 7.44961C1.11915 7.1543 1.03126 6.65156 1.25978 6.25781L2.76447 3.65625C2.76447 3.65273 2.76798 3.65273 2.76798 3.64922C3.00353 3.25547 3.48517 3.08672 3.91408 3.24844C3.91759 3.24844 3.92111 3.25195 3.92462 3.25195L5.50314 3.88828C5.77033 3.70547 6.04806 3.54375 6.33634 3.40313L6.57189 1.71914C6.57189 1.71211 6.5754 1.70508 6.5754 1.70156C6.64923 1.25508 7.03595 0.924609 7.48947 0.914062C7.49298 0.914062 7.4965 0.914062 7.50001 0.914062H10.5059C10.5094 0.914062 10.5129 0.914062 10.5164 0.914062C10.9664 0.921094 11.3426 1.23398 11.434 1.67344C11.4375 1.68398 11.4375 1.69805 11.441 1.70859L11.6766 3.38906H11.6801C11.9684 3.52969 12.2496 3.69141 12.5133 3.87773L14.0918 3.24141C14.0953 3.24141 14.0988 3.23789 14.1024 3.23789C14.5313 3.07266 15.0129 3.24141 15.2485 3.63867C15.2485 3.64219 15.252 3.64219 15.252 3.6457L16.7567 6.24727C16.9887 6.64453 16.8973 7.15078 16.5422 7.44609C16.5387 7.44961 16.5352 7.45312 16.5317 7.45664L15.1887 8.51133C15.1887 8.51484 15.1887 8.51836 15.1887 8.51836C15.2027 8.69766 15.2098 8.85586 15.2098 9V9.00352C15.2098 9.16172 15.2027 9.32344 15.1887 9.48164L16.5317 10.5328C16.5352 10.5363 16.5387 10.5398 16.5422 10.5434C16.8973 10.8387 16.9887 11.3414 16.7567 11.7422L15.252 14.3438C15.252 14.3473 15.2485 14.3473 15.2485 14.3508C15.0129 14.7445 14.5313 14.9133 14.1024 14.7516C14.0988 14.7516 14.0953 14.748 14.0918 14.748L12.5133 14.1117C12.2461 14.2945 11.9684 14.4563 11.6801 14.5969L11.4445 16.2809C11.4445 16.2879 11.441 16.2949 11.441 16.2984C11.3637 16.7449 10.977 17.0754 10.5235 17.0859C10.5164 17.0859 10.5129 17.0859 10.5094 17.0859ZM7.65822 15.9609H10.3512L10.5656 14.4387C10.6184 14.0695 10.8504 13.7496 11.1879 13.5844C11.427 13.4684 11.6555 13.3348 11.8735 13.1871C12.1828 12.9727 12.5801 12.927 12.9352 13.0676L14.3625 13.6406L15.7055 11.3168L14.243 10.1742C14.0848 10.0512 14.0039 9.85078 14.032 9.65391C14.0637 9.43945 14.0777 9.21797 14.0813 9C14.0813 8.88398 14.0742 8.75742 14.0637 8.60977C14.0285 8.23008 14.1902 7.86094 14.4891 7.62539L15.702 6.67266L14.359 4.34883L12.9317 4.92188C12.5801 5.0625 12.1828 5.02031 11.8699 4.80234C11.6555 4.65117 11.427 4.51758 11.1914 4.40508C10.8539 4.24336 10.6184 3.92344 10.5621 3.55078L10.3512 2.03906H7.65822L7.44376 3.56133C7.39103 3.93047 7.159 4.25039 6.8215 4.41562C6.58244 4.53164 6.35392 4.66523 6.13595 4.81289C5.82658 5.02734 5.42931 5.07305 5.07423 4.93242L3.65392 4.35938L2.31095 6.6832L3.51681 7.63242C3.81564 7.86797 3.97384 8.23359 3.9422 8.61328C3.92814 8.75039 3.92462 8.87695 3.92462 9C3.92462 9.11953 3.93165 9.24609 3.9422 9.39023C3.97736 9.76992 3.81915 10.1391 3.52033 10.3746L2.30744 11.3273L3.6504 13.6512L5.07423 13.0781C5.42579 12.9375 5.82306 12.9797 6.13595 13.1977C6.3504 13.3488 6.57892 13.4824 6.81447 13.5949C7.15197 13.7566 7.38751 14.0766 7.44376 14.4492L7.65822 15.9609ZM9.00822 11.8125C8.91681 11.8125 8.82189 11.809 8.73048 11.7984C7.98165 11.7246 7.31017 11.3625 6.83205 10.7824C6.35392 10.2023 6.13244 9.47109 6.20626 8.72227C6.35744 7.17891 7.73908 6.04688 9.28244 6.19805C10.6113 6.33164 11.6695 7.39336 11.8031 8.71875C11.8207 8.90156 11.8207 9.08789 11.8031 9.27422C11.659 10.7262 10.4356 11.8125 9.00822 11.8125ZM9.00119 7.3125C8.61095 7.3125 8.2383 7.44609 7.93244 7.6957C7.58439 7.98047 7.36642 8.38477 7.32423 8.83477C7.27853 9.28477 7.41212 9.7207 7.7004 10.0723C7.98517 10.4203 8.38947 10.6383 8.83947 10.6805C9.76408 10.7719 10.5938 10.0934 10.6852 9.16523C10.6957 9.05625 10.6957 8.94375 10.6852 8.83477C10.6043 8.03672 9.96798 7.40039 9.16994 7.31953C9.11369 7.31602 9.05744 7.3125 9.00119 7.3125Z" fill="#2E4A3A"/>
</svg>
