<svg width="18" height="18" viewBox="0 0 18 18" fill="none" xmlns="http://www.w3.org/2000/svg">
<path d="M9.18574 15.961C7.35059 15.961 5.62793 15.2473 4.33418 13.9571C3.03691 12.6633 2.32324 10.9442 2.32324 9.11254V8.06488C2.32324 7.75551 2.57637 7.50238 2.88574 7.50238C3.19512 7.50238 3.44824 7.75551 3.44824 8.06488V9.11254C3.44824 12.2696 6.02168 14.836 9.18574 14.836C10.933 14.8325 12.5713 14.052 13.6717 12.6914C13.8686 12.4489 14.2201 12.4137 14.4627 12.6071C14.7053 12.8039 14.7404 13.1555 14.5471 13.3981C13.2287 15.0258 11.2775 15.9575 9.18574 15.961ZM15.4682 10.7086C15.1588 10.7086 14.9057 10.4555 14.9057 10.1461V9.09848C14.9057 5.94144 12.3322 3.37504 9.16816 3.37504C9.16465 3.37504 9.16465 3.37504 9.16113 3.37504C7.40684 3.37504 5.77559 4.15902 4.68223 5.53012C4.48887 5.7727 4.13379 5.81137 3.89121 5.61801C3.64863 5.42465 3.60996 5.06957 3.80332 4.82699C4.44316 4.02543 5.26934 3.36801 6.19043 2.92504C7.11152 2.48207 8.1416 2.24652 9.16816 2.25004C12.951 2.25004 16.0307 5.3227 16.0307 9.09848V10.1461C16.0307 10.4555 15.7775 10.7086 15.4682 10.7086Z" fill="#2E4A3A"/>
<path d="M4.4748 9.66843C4.33418 9.66843 4.19355 9.6157 4.08457 9.51374L2.86465 8.34656L1.70801 9.5032C1.49004 9.72117 1.13145 9.72117 0.913477 9.5032C0.695508 9.28523 0.695508 8.92664 0.913477 8.70867L2.46035 7.16179C2.6748 6.94382 3.02637 6.94031 3.24785 7.15476L4.86504 8.70164C5.09004 8.91609 5.09707 9.27117 4.88262 9.49617C4.77012 9.60867 4.62246 9.66843 4.4748 9.66843Z" fill="#2E4A3A"/>
<path d="M15.5139 11.2147C15.3733 11.2147 15.2326 11.162 15.1237 11.06L13.5065 9.51317C13.2815 9.29871 13.2744 8.94364 13.4889 8.71864C13.7034 8.49364 14.0584 8.4866 14.2834 8.70106L15.5034 9.86824L16.66 8.7116C16.878 8.49364 17.2366 8.49364 17.4545 8.7116C17.6725 8.92957 17.6725 9.28817 17.4545 9.50613L15.9076 11.053C15.8022 11.1585 15.658 11.2147 15.5139 11.2147Z" fill="#2E4A3A"/>
</svg>
