<svg width="68" height="68" viewBox="0 0 68 68" fill="none" xmlns="http://www.w3.org/2000/svg">
<path d="M7.80805 58.3218C7.38972 58.1777 7.02679 57.9066 6.76989 57.5464C6.51299 57.1862 6.37494 56.7548 6.375 56.3123C6.375 46.6037 8.32469 38.8395 12.1723 33.2335C16.8207 26.46 24.1533 22.813 34 22.3601V11.6873C34 11.2712 34.1222 10.8643 34.3514 10.517C34.5806 10.1697 34.9067 9.89736 35.2893 9.73372C35.6719 9.57008 36.0941 9.52237 36.5035 9.59649C36.913 9.67061 37.2916 9.8633 37.5926 10.1507L60.9676 32.4632C61.1753 32.6616 61.3406 32.9001 61.4536 33.1642C61.5666 33.4283 61.6248 33.7126 61.6248 33.9998C61.6248 34.2871 61.5666 34.5713 61.4536 34.8355C61.3406 35.0996 61.1753 35.338 60.9676 35.5365L37.5926 57.849C37.2916 58.1363 36.913 58.329 36.5035 58.4031C36.0941 58.4773 35.6719 58.4296 35.2893 58.2659C34.9067 58.1023 34.5806 57.8299 34.3514 57.4826C34.1222 57.1353 34 56.7284 34 56.3123V45.7179C28.0234 45.8985 23.5078 46.8667 19.9126 48.7247C16.0278 50.7329 13.2109 53.7331 10.1748 57.6232C9.9024 57.9719 9.52795 58.227 9.10367 58.3527C8.67939 58.4784 8.22644 58.4685 7.80805 58.3244V58.3218Z" fill="white"/>
</svg>
