<svg width="24" height="24" viewBox="0 0 24 24" fill="none" xmlns="http://www.w3.org/2000/svg">
<path fill-rule="evenodd" clip-rule="evenodd" d="M12.233 4.4545C11.7937 4.01517 11.0813 4.01517 10.642 4.4545L3.892 11.2045C3.45267 11.6438 3.45267 12.3562 3.892 12.7955L10.642 19.5455C11.0813 19.9848 11.7937 19.9848 12.233 19.5455C12.6723 19.1062 12.6723 18.3938 12.233 17.9545L6.27849 12L12.233 6.0455C12.6723 5.60616 12.6723 4.89384 12.233 4.4545Z" fill="#1F2C26"/>
<path fill-rule="evenodd" clip-rule="evenodd" d="M20.4375 12C20.4375 11.3787 19.9338 10.875 19.3125 10.875H5.625C5.00368 10.875 4.5 11.3787 4.5 12C4.5 12.6213 5.00368 13.125 5.625 13.125H19.3125C19.9338 13.125 20.4375 12.6213 20.4375 12Z" fill="#1F2C26"/>
</svg>
