<svg width="24" height="24" viewBox="0 0 24 24" fill="none" xmlns="http://www.w3.org/2000/svg">
<path fill-rule="evenodd" clip-rule="evenodd" d="M5.56455 1.5H18.4353C18.6928 1.50029 18.9459 1.5664 19.1706 1.69205C19.3952 1.81762 19.584 1.99848 19.7191 2.21748C19.7192 2.21762 19.7193 2.21777 19.7194 2.21791L23.0221 7.54905C23.1848 7.81225 23.2636 8.11874 23.2479 8.42778C23.2322 8.73683 23.1229 9.03379 22.9344 9.27919L22.9336 9.28028L13.1964 21.9098C13.1962 21.91 13.196 21.9103 13.1958 21.9106C13.0551 22.0938 12.8742 22.2422 12.667 22.3444C12.4595 22.4467 12.2313 22.4999 11.9999 22.4999C11.7686 22.4999 11.5403 22.4467 11.3329 22.3444C11.1257 22.2422 10.9448 22.0938 10.804 21.9106C10.8038 21.9103 10.8036 21.91 10.8034 21.9098L1.06628 9.28028L1.66024 8.82234L1.06544 9.27919C0.876951 9.03378 0.767612 8.73682 0.751953 8.42778C0.736295 8.11874 0.815061 7.81225 0.977782 7.54905L4.28051 2.21791C4.28069 2.21762 4.28086 2.21734 4.28104 2.21705C4.41609 1.99824 4.60477 1.81754 4.82922 1.69205C5.05395 1.5664 5.30708 1.50029 5.56455 1.5ZM2.25491 8.36531C2.25495 8.36537 2.255 8.36543 2.25504 8.36549L11.9925 20.9953L11.9936 20.9968C11.9943 20.9978 11.9953 20.9986 11.9964 20.9991C11.9975 20.9996 11.9987 20.9999 11.9999 20.9999C12.0011 20.9999 12.0024 20.9996 12.0035 20.9991C12.0046 20.9986 12.0055 20.9978 12.0063 20.9968L12.0074 20.9953L21.7448 8.36549C21.7449 8.36542 21.7449 8.36535 21.745 8.36528C21.7479 8.3614 21.7496 8.35673 21.7498 8.35188C21.7501 8.34694 21.7488 8.34204 21.7462 8.33783L18.4424 3.0049C18.4415 3.0034 18.4402 3.00217 18.4386 3.00131C18.4371 3.00047 18.4354 3.00002 18.4337 3H5.56616C5.56443 3.00002 5.56273 3.00047 5.56122 3.00131C5.55969 3.00217 5.5584 3.0034 5.55748 3.0049L5.55656 3.00639L2.25364 8.33783C2.25363 8.33786 2.25361 8.33788 2.25359 8.33791C2.25102 8.3421 2.24978 8.34697 2.25003 8.35188C2.25028 8.35675 2.25198 8.36143 2.25491 8.36531Z" fill="#21272A"/>
<path fill-rule="evenodd" clip-rule="evenodd" d="M1.5 8.25C1.5 7.83579 1.83579 7.5 2.25 7.5H21.75C22.1642 7.5 22.5 7.83579 22.5 8.25C22.5 8.66421 22.1642 9 21.75 9H2.25C1.83579 9 1.5 8.66421 1.5 8.25Z" fill="#21272A"/>
<path fill-rule="evenodd" clip-rule="evenodd" d="M11.55 1.65004C11.8814 1.40152 12.3515 1.46867 12.6 1.80004L16.3217 6.76225L18.0607 2.7046C18.2239 2.32388 18.6648 2.14752 19.0455 2.31069C19.4262 2.47385 19.6026 2.91476 19.4394 3.29548L17.1894 8.54548C17.0839 8.79162 16.8552 8.96284 16.5893 8.99471C16.3234 9.02659 16.0607 8.91428 15.9 8.70004L11.4 2.70004C11.1515 2.36867 11.2187 1.89857 11.55 1.65004Z" fill="#21272A"/>
<path fill-rule="evenodd" clip-rule="evenodd" d="M12.4499 1.65004C12.7813 1.89857 12.8485 2.36867 12.5999 2.70004L8.09995 8.70004C7.93927 8.91428 7.67657 9.02659 7.41068 8.99471C7.1448 8.96284 6.91608 8.79162 6.81059 8.54548L4.56059 3.29548C4.39742 2.91476 4.57379 2.47385 4.95451 2.31069C5.33523 2.14752 5.77614 2.32388 5.93931 2.7046L7.6783 6.76225L11.3999 1.80004C11.6485 1.46867 12.1186 1.40152 12.4499 1.65004Z" fill="#21272A"/>
<path fill-rule="evenodd" clip-rule="evenodd" d="M7.25035 7.54272C7.64094 7.40486 8.06934 7.60975 8.2072 8.00035L12.7072 20.7503C12.8451 21.1409 12.6402 21.5693 12.2496 21.7072C11.859 21.8451 11.4306 21.6402 11.2927 21.2496L6.79272 8.49958C6.65486 8.10898 6.85975 7.68058 7.25035 7.54272Z" fill="#21272A"/>
<path fill-rule="evenodd" clip-rule="evenodd" d="M16.7496 7.54272C17.1402 7.68058 17.3451 8.10898 17.2072 8.49958L12.7072 21.2496C12.5693 21.6402 12.1409 21.8451 11.7503 21.7072C11.3597 21.5693 11.1549 21.1409 11.2927 20.7503L15.7927 8.00035C15.9306 7.60975 16.359 7.40486 16.7496 7.54272Z" fill="#21272A"/>
</svg>
