<svg width="24" height="24" viewBox="0 0 24 24" fill="none" xmlns="http://www.w3.org/2000/svg">
<path d="M8.625 12C9.24632 12 9.75 11.4963 9.75 10.875C9.75 10.2537 9.24632 9.75 8.625 9.75C8.00368 9.75 7.5 10.2537 7.5 10.875C7.5 11.4963 8.00368 12 8.625 12Z" fill="#21272A"/>
<path d="M12.0024 18C9.87337 18 8.08274 16.6158 7.51602 14.7268C7.50017 14.6705 7.49768 14.6114 7.50873 14.5541C7.51978 14.4967 7.54407 14.4427 7.57968 14.3964C7.61528 14.3501 7.66121 14.3128 7.7138 14.2874C7.76639 14.2619 7.82419 14.2492 7.88259 14.25H16.1181C16.1765 14.2492 16.2343 14.2619 16.2868 14.2874C16.3394 14.3128 16.3854 14.3501 16.421 14.3964C16.4566 14.4427 16.4809 14.4967 16.4919 14.5541C16.503 14.6114 16.5005 14.6705 16.4846 14.7268C15.9226 16.6158 14.1315 18 12.0024 18Z" fill="#21272A"/>
<path d="M15.375 12C15.9963 12 16.5 11.4963 16.5 10.875C16.5 10.2537 15.9963 9.75 15.375 9.75C14.7537 9.75 14.25 10.2537 14.25 10.875C14.25 11.4963 14.7537 12 15.375 12Z" fill="#21272A"/>
<path fill-rule="evenodd" clip-rule="evenodd" d="M12 3C7.02944 3 3 7.02944 3 12C3 16.9706 7.02944 21 12 21C16.9706 21 21 16.9706 21 12C21 7.02944 16.9706 3 12 3ZM1.5 12C1.5 6.20101 6.20101 1.5 12 1.5C17.799 1.5 22.5 6.20101 22.5 12C22.5 17.799 17.799 22.5 12 22.5C6.20101 22.5 1.5 17.799 1.5 12Z" fill="#21272A"/>
</svg>
