<svg width="68" height="68" viewBox="0 0 68 68" fill="none" xmlns="http://www.w3.org/2000/svg">
<path d="M55.0362 12.9639C52.2786 10.179 48.998 7.96644 45.3827 6.45329C41.7675 4.94014 37.8888 4.15622 33.9697 4.14657C30.0506 4.13693 26.1681 4.90174 22.5455 6.39708C18.9228 7.89241 15.6313 10.0888 12.8601 12.8601C10.0888 15.6313 7.89241 18.9228 6.39708 22.5455C4.90174 26.1681 4.13693 30.0506 4.14657 33.9697C4.15622 37.8888 4.94014 41.7675 6.45329 45.3827C7.96644 48.998 10.179 52.2786 12.9639 55.0362C15.7214 57.8211 19.0021 60.0336 22.6174 61.5468C26.2326 63.0599 30.1112 63.8439 34.0304 63.8535C37.9495 63.8631 41.8319 63.0983 45.4546 61.603C49.0773 60.1077 52.3688 57.9113 55.14 55.14C57.9113 52.3688 60.1077 49.0773 61.603 45.4546C63.0983 41.8319 63.8631 37.9495 63.8535 34.0304C63.8439 30.1112 63.0599 26.2326 61.5468 22.6174C60.0336 19.0021 57.8211 15.7214 55.0362 12.9639ZM24.4375 27.625C25.068 27.625 25.6842 27.812 26.2084 28.1622C26.7326 28.5125 27.1411 29.0103 27.3824 29.5927C27.6237 30.1752 27.6868 30.8161 27.5638 31.4344C27.4408 32.0527 27.1372 32.6207 26.6914 33.0664C26.2457 33.5122 25.6777 33.8158 25.0594 33.9388C24.4411 34.0618 23.8002 33.9987 23.2177 33.7574C22.6353 33.5161 22.1375 33.1076 21.7872 32.5834C21.437 32.0592 21.25 31.443 21.25 30.8125C21.249 30.3937 21.3307 29.9787 21.4905 29.5915C21.6503 29.2043 21.8851 28.8525 22.1813 28.5563C22.4775 28.2601 22.8293 28.0253 23.2165 27.8655C23.6037 27.7057 24.0187 27.624 24.4375 27.625ZM46.7062 41.7257C45.1125 47.0781 40.039 51 34.0067 51C27.9743 51 22.9009 47.0781 21.2939 41.7257C21.2489 41.5664 21.2419 41.3987 21.2732 41.2361C21.3046 41.0735 21.3736 40.9204 21.4746 40.7892C21.5756 40.658 21.7059 40.5522 21.8551 40.4803C22.0043 40.4084 22.1682 40.3723 22.3338 40.375H45.6676C45.8331 40.3726 45.9968 40.4088 46.1459 40.4808C46.2949 40.5528 46.425 40.6586 46.5259 40.7898C46.6267 40.921 46.6956 41.0739 46.7269 41.2364C46.7582 41.3989 46.7511 41.5665 46.7062 41.7257ZM43.5625 34C42.9321 34 42.3158 33.8131 41.7917 33.4628C41.2675 33.1126 40.8589 32.6148 40.6177 32.0323C40.3764 31.4499 40.3133 30.809 40.4363 30.1907C40.5593 29.5724 40.8629 29.0044 41.3086 28.5586C41.7544 28.1129 42.3224 27.8093 42.9407 27.6863C43.559 27.5633 44.1999 27.6264 44.7823 27.8677C45.3648 28.1089 45.8626 28.5175 46.2128 29.0417C46.5631 29.5658 46.75 30.1821 46.75 30.8125C46.7511 31.2314 46.6694 31.6464 46.5095 32.0336C46.3497 32.4208 46.115 32.7726 45.8188 33.0688C45.5226 33.365 45.1708 33.5997 44.7836 33.7595C44.3964 33.9194 43.9814 34.0011 43.5625 34Z" fill="white"/>
</svg>
