<svg width="24" height="24" viewBox="0 0 24 24" fill="none" xmlns="http://www.w3.org/2000/svg">
<path fill-rule="evenodd" clip-rule="evenodd" d="M3.75 9.1875C4.16421 9.1875 4.5 9.52329 4.5 9.9375V21H8.25V15.375C8.25 14.8777 8.44754 14.4008 8.79917 14.0492C9.1508 13.6975 9.62772 13.5 10.125 13.5H13.875C14.3723 13.5 14.8492 13.6975 15.2008 14.0492C15.5525 14.4008 15.75 14.8777 15.75 15.375V21H19.5V9.9375C19.5 9.52329 19.8358 9.1875 20.25 9.1875C20.6642 9.1875 21 9.52329 21 9.9375V21C21 21.3978 20.842 21.7794 20.5607 22.0607C20.2794 22.342 19.8978 22.5 19.5 22.5H15C14.5858 22.5 14.25 22.1642 14.25 21.75V15.375C14.25 15.2755 14.2105 15.1802 14.1402 15.1098C14.0698 15.0395 13.9745 15 13.875 15H10.125C10.0255 15 9.93016 15.0395 9.85983 15.1098C9.78951 15.1802 9.75 15.2755 9.75 15.375V21.75C9.75 22.1642 9.41421 22.5 9 22.5H4.5C4.10218 22.5 3.72065 22.342 3.43934 22.0607C3.15804 21.7794 3 21.3978 3 21V9.9375C3 9.52329 3.33579 9.1875 3.75 9.1875Z" fill="#21272A"/>
<path fill-rule="evenodd" clip-rule="evenodd" d="M13.0393 1.90552L23.0186 11.4583C23.3178 11.7447 23.3282 12.2194 23.0418 12.5187C22.7554 12.8179 22.2806 12.8282 21.9814 12.5418L12.015 3.00151C12.0105 3.00111 12.0055 3.00086 12.0002 3.00085C11.9948 3.00084 11.9897 3.00108 11.985 3.0015L2.01862 12.5418C1.71941 12.8282 1.24465 12.8179 0.958217 12.5187C0.67179 12.2194 0.682159 11.7447 0.981378 11.4583L10.9613 1.90491C11.2673 1.59474 11.6842 1.50029 12.0029 1.50086C12.3203 1.50143 12.7358 1.59665 13.0393 1.90552Z" fill="#21272A"/>
<path fill-rule="evenodd" clip-rule="evenodd" d="M15.75 3C15.75 2.58579 16.0858 2.25 16.5 2.25H18.75C19.1642 2.25 19.5 2.58579 19.5 3V8.39062C19.5 8.80484 19.1642 9.14062 18.75 9.14062C18.3358 9.14062 18 8.80484 18 8.39062V3.75H17.25V6.23438C17.25 6.64859 16.9142 6.98438 16.5 6.98438C16.0858 6.98438 15.75 6.64859 15.75 6.23438V3Z" fill="#21272A"/>
</svg>
