<svg width="24" height="24" viewBox="0 0 24 24" fill="none" xmlns="http://www.w3.org/2000/svg">
<path fill-rule="evenodd" clip-rule="evenodd" d="M10.1893 2.68934C10.4706 2.40804 10.8522 2.25 11.25 2.25H12.75C13.1478 2.25 13.5294 2.40804 13.8107 2.68934C14.092 2.97065 14.25 3.35218 14.25 3.75L14.2469 8.09471L18.0136 5.9126L18.0155 5.91147C18.3548 5.71626 18.7578 5.66383 19.1357 5.76569C19.5137 5.86755 19.8357 6.11537 20.031 6.45465L20.8028 7.79453L20.153 8.16891L20.8041 7.79676C20.9977 8.13538 21.0494 8.5368 20.9481 8.91342C20.8467 9.29004 20.6005 9.6113 20.2632 9.80709L16.4867 11.9958L20.2593 14.1822C20.26 14.1826 20.2607 14.183 20.2614 14.1834C20.4288 14.2796 20.5757 14.4078 20.6937 14.5607C20.8122 14.7143 20.8992 14.8897 20.9497 15.077C21.0002 15.2642 21.0132 15.4596 20.988 15.6519C20.9628 15.8442 20.8998 16.0296 20.8028 16.1975L20.0314 17.5364C19.8362 17.8757 19.5142 18.1235 19.1362 18.2254C18.7582 18.3273 18.3553 18.2748 18.016 18.0796L18.014 18.0785L14.2473 15.8963L14.25 20.25C14.25 20.6478 14.092 21.0294 13.8107 21.3107C13.5294 21.592 13.1478 21.75 12.75 21.75H11.25C10.8522 21.75 10.4706 21.592 10.1893 21.3107C9.90804 21.0294 9.75 20.6478 9.75 20.25L9.75306 15.9006L5.98643 18.0827L5.98448 18.0838C5.64518 18.279 5.24223 18.3315 4.86427 18.2296C4.48641 18.1278 4.16446 17.8801 3.96919 17.5409C3.96915 17.5409 3.96911 17.5408 3.96907 17.5407C3.96906 17.5407 3.96904 17.5407 3.96903 17.5407L3.19715 16.2008C3.19638 16.1994 3.1956 16.1981 3.19483 16.1967C3.00264 15.8582 2.95169 15.4576 3.05303 15.0818C3.15438 14.706 3.39985 14.3853 3.73617 14.1893L3.73768 14.1884L7.51378 12L3.73899 9.81231C3.57158 9.71611 3.42471 9.58793 3.30675 9.43505C3.18828 9.2815 3.10129 9.10606 3.0508 8.91881C3.0003 8.73155 2.98729 8.53617 3.0125 8.34387C3.03767 8.15184 3.10048 7.96667 3.19731 7.79894C3.19745 7.79871 3.19758 7.79848 3.19771 7.79825L3.96856 6.45887C3.96856 6.45887 3.96856 6.45886 3.96856 6.45887C4.16382 6.11959 4.48584 5.87177 4.8638 5.76991C5.24177 5.66804 5.64471 5.72048 5.98401 5.91569L5.98596 5.91682L9.75268 8.09898L9.75 3.75C9.75 3.35217 9.90804 2.97064 10.1893 2.68934ZM19.4904 8.52127L18.7429 7.22363L14.1535 9.8824L14.1525 9.88294C14.0094 9.96559 13.8469 10.0089 13.6817 10.0086C13.5164 10.0082 13.3541 9.96414 13.2114 9.88086C13.0686 9.79757 12.9504 9.67802 12.8687 9.53433C12.7877 9.39187 12.7455 9.2307 12.7463 9.06689L12.75 3.75L11.25 3.75L11.2533 9.07114C11.254 9.23495 11.2118 9.39611 11.1308 9.53855C11.0492 9.68224 10.9309 9.80179 10.7882 9.88507C10.6454 9.96835 10.4832 10.0124 10.3179 10.0128C10.1526 10.0131 9.99014 9.96981 9.847 9.88716L9.84607 9.88662L5.25667 7.22785L4.5099 8.52539L9.10654 11.1894L9.11001 11.1914C9.25099 11.2741 9.36789 11.3923 9.44912 11.5341C9.53035 11.6759 9.57308 11.8365 9.57308 12C9.57308 12.1635 9.53035 12.3241 9.44912 12.4659C9.36789 12.6077 9.251 12.7259 9.11001 12.8086L9.10654 12.8106L4.50991 15.4746L5.25713 16.7717L9.84654 14.1129L9.84747 14.1124C9.99059 14.0297 10.153 13.9864 10.3183 13.9868C10.4836 13.9871 10.6459 14.0312 10.7886 14.1145C10.9314 14.1977 11.0496 14.3173 11.1313 14.461C11.2123 14.6034 11.2545 14.7646 11.2537 14.9284L11.25 20.25H12.75L12.7467 14.9242C12.746 14.7604 12.7882 14.5992 12.8692 14.4568C12.9509 14.3131 13.0691 14.1935 13.2118 14.1102C13.3546 14.027 13.5168 13.9829 13.6821 13.9825C13.8474 13.9822 14.0099 14.0255 14.153 14.1082L14.1539 14.1087L18.7433 16.7675L19.4906 15.4704L14.8939 12.8064L14.8905 12.8044C14.7495 12.7217 14.6326 12.6035 14.5513 12.4617C14.4701 12.3198 14.4274 12.1592 14.4274 11.9958C14.4274 11.8323 14.4701 11.6717 14.5513 11.5299C14.6326 11.388 14.7495 11.2699 14.8905 11.1872L14.8939 11.1852L19.4904 8.52127ZM5.26863 7.20708C5.26862 7.2071 5.26861 7.20711 5.2686 7.20713L5.26863 7.20708Z" fill="#21272A"/>
</svg>
