<svg width="68" height="68" viewBox="0 0 68 68" fill="none" xmlns="http://www.w3.org/2000/svg">
<path d="M44.625 34C41.8944 34 39.2541 32.7808 37.1875 30.5681C35.1781 28.4099 33.9509 25.5319 33.7344 22.4666C33.5033 19.1967 34.5007 16.1898 36.5421 13.9984C38.5834 11.807 41.4375 10.625 44.625 10.625C47.79 10.625 50.6521 11.8283 52.6868 14.0144C54.7414 16.2217 55.7414 19.2233 55.5104 22.4652C55.2886 25.5345 54.0627 28.4112 52.0572 30.5668C49.996 32.7808 47.357 34 44.625 34Z" fill="white"/>
<path d="M62.1337 57.375H27.1177C26.5547 57.378 25.9985 57.2518 25.492 57.0061C24.9854 56.7605 24.542 56.4018 24.1958 55.9579C23.8286 55.4766 23.575 54.9185 23.454 54.3253C23.333 53.7322 23.3478 53.1193 23.4972 52.5327C24.6155 48.0423 27.386 44.3182 31.5085 41.7642C35.1674 39.4984 39.8252 38.25 44.625 38.25C49.5192 38.25 54.0547 39.4453 57.7349 41.7098C61.8667 44.2505 64.6412 47.9958 65.7542 52.5406C65.9018 53.1277 65.9149 53.7405 65.7925 54.3334C65.6702 54.9263 65.4156 55.4838 65.0476 55.9645C64.7018 56.4064 64.2593 56.7633 63.7543 57.0078C63.2492 57.2523 62.6948 57.3779 62.1337 57.375Z" fill="white"/>
<path d="M19.5233 34.5312C14.8496 34.5312 10.7404 30.1856 10.3592 24.8452C10.1706 22.1093 11.0233 19.5792 12.7499 17.7238C14.4578 15.887 16.8671 14.875 19.5233 14.875C22.1796 14.875 24.5702 15.8923 26.2874 17.7398C28.0273 19.6098 28.8773 22.1345 28.6781 24.8479C28.2969 30.187 24.189 34.5312 19.5233 34.5312Z" fill="white"/>
<path d="M28.2438 38.7084C25.9076 37.5662 22.8755 36.9951 19.5246 36.9951C15.612 36.9951 11.8122 38.0151 8.82391 39.8665C5.43586 41.9689 3.1568 45.0303 2.23641 48.7264C2.10172 49.2581 2.08898 49.8133 2.19915 50.3506C2.30931 50.8878 2.53953 51.3932 2.87258 51.8289C3.18861 52.2346 3.59347 52.5625 4.05603 52.7872C4.51859 53.0119 5.02653 53.1275 5.54079 53.1252H20.283C20.5318 53.1252 20.7727 53.0378 20.9637 52.8783C21.1547 52.7189 21.2837 52.4974 21.3282 52.2526C21.3428 52.1689 21.3614 52.0853 21.3827 52.0029C22.5089 47.4793 25.1479 43.657 29.0473 40.8706C29.1907 40.7672 29.306 40.6297 29.3829 40.4704C29.4597 40.3112 29.4956 40.1353 29.4873 39.9587C29.479 39.7821 29.4267 39.6104 29.3353 39.4591C29.2438 39.3078 29.1161 39.1817 28.9636 39.0922C28.7551 38.97 28.516 38.8412 28.2438 38.7084Z" fill="white"/>
</svg>
