<svg width="24" height="24" viewBox="0 0 24 24" fill="none" xmlns="http://www.w3.org/2000/svg">
<path d="M15.7501 12C14.7845 12 13.8564 11.5687 13.1251 10.7906C12.4173 10.0312 11.9814 9.01406 11.9064 7.93125C11.8267 6.77812 12.1782 5.71406 12.8954 4.94063C13.6126 4.17188 14.6251 3.75 15.7501 3.75C16.8657 3.75 17.8782 4.17656 18.5954 4.94531C19.322 5.72344 19.6735 6.78281 19.5892 7.92656C19.5095 9.00938 19.0782 10.0266 18.3704 10.7859C17.6439 11.5688 16.7157 12 15.7501 12ZM15.7501 5.25C15.047 5.25 14.4235 5.50312 13.997 5.9625C13.5564 6.43594 13.3548 7.07812 13.4064 7.82344C13.4579 8.56406 13.7485 9.25781 14.2267 9.76875C14.6673 10.2422 15.211 10.5 15.7501 10.5C16.2939 10.5 16.8329 10.2375 17.2735 9.76875C17.7517 9.25781 18.0423 8.56875 18.0939 7.82344C18.1454 7.10156 17.9345 6.44063 17.4939 5.97188C17.0673 5.50313 16.4439 5.25 15.7501 5.25Z" fill="#21272A"/>
<path d="M21.9283 20.25H9.57203C9.16422 20.25 8.78922 20.0672 8.54078 19.7485C8.28297 19.4157 8.18922 18.9657 8.29234 18.5391C8.68609 16.9547 9.66578 15.6422 11.1189 14.7375C12.408 13.936 14.0533 13.4954 15.7455 13.4954C17.4705 13.4954 19.0736 13.9172 20.372 14.7188C21.8298 15.6141 22.8095 16.936 23.2033 18.5391C23.3064 18.9657 23.2127 19.4157 22.9548 19.7485C22.7111 20.0672 22.3361 20.25 21.9283 20.25ZM9.79234 18.75H21.7127C20.9392 15.9844 18.0377 15 15.7502 15C13.472 15 10.5752 15.9844 9.79234 18.75Z" fill="#21272A"/>
<path d="M6.89068 12.1875C5.24068 12.1875 3.79224 10.6546 3.65631 8.77026C3.58599 7.80464 3.88599 6.91401 4.49537 6.25776C5.10006 5.61089 5.94849 5.25464 6.88599 5.25464C7.81881 5.25464 8.66724 5.61558 9.27193 6.26714C9.88599 6.92808 10.186 7.8187 10.1157 8.77495C9.98912 10.6546 8.53599 12.1875 6.89068 12.1875ZM6.89068 6.74995C6.37506 6.74995 5.91568 6.93745 5.59693 7.27964C5.26881 7.6312 5.11412 8.10933 5.15631 8.66245C5.23599 9.75933 6.02818 10.6875 6.89068 10.6875C7.75318 10.6875 8.55006 9.75933 8.62506 8.66245C8.66256 8.12339 8.50318 7.63589 8.17974 7.28433C7.86099 6.93745 7.40162 6.74995 6.89068 6.74995Z" fill="#21272A"/>
<path d="M7.21879 18.75H1.95472C1.58441 18.75 1.24222 18.5812 1.01254 18.2953C0.778161 17.9953 0.693786 17.5828 0.787536 17.1984C1.11097 15.8906 1.91722 14.8125 3.11254 14.0718C4.16722 13.4203 5.50785 13.0593 6.88597 13.0593C8.06722 13.0593 9.07504 13.2562 9.96566 13.664C10.3407 13.8375 10.5094 14.2828 10.336 14.6578C10.1625 15.0328 9.71722 15.2015 9.34222 15.0281C8.65316 14.714 7.8516 14.5593 6.89066 14.5593C5.17972 14.5593 3.01879 15.2718 2.33441 17.2546H7.21879C7.63129 17.2546 7.96879 17.5921 7.96879 18.0046C7.96879 18.4171 7.63129 18.75 7.21879 18.75Z" fill="#21272A"/>
</svg>
