<svg width="48" height="48" viewBox="0 0 48 48" fill="none" xmlns="http://www.w3.org/2000/svg">
<path d="M30.8299 14.6992C30.251 14.6995 29.6902 14.9006 29.2429 15.268C28.7956 15.6355 28.4896 16.1467 28.3769 16.7145C28.2643 17.2823 28.352 17.8716 28.6251 18.382C28.8983 18.8924 29.3399 19.2923 29.8748 19.5136C30.4097 19.7349 31.0048 19.7638 31.5587 19.5955C32.1126 19.4272 32.591 19.0721 32.9124 18.5907C33.2338 18.1092 33.3783 17.5312 33.3213 16.9551C33.2644 16.3791 33.0094 15.8406 32.5999 15.4314C32.3677 15.1987 32.0918 15.0143 31.788 14.8886C31.4843 14.7629 31.1586 14.6986 30.8299 14.6992Z" fill="#C15A2E"/>
<path d="M44.7599 4.69291C44.7595 4.69012 44.7595 4.68727 44.7599 4.68448C44.6806 4.33696 44.5058 4.01851 44.2552 3.76506C44.0045 3.51162 43.6881 3.33325 43.3415 3.2501C40.5477 2.56854 36.1527 3.2951 31.2824 5.2451C26.3736 7.21385 21.7743 10.1201 18.6655 13.2345C17.6691 14.2256 16.7434 15.2854 15.8952 16.406C13.8018 16.3123 11.9577 16.6104 10.4043 17.2882C4.99115 19.6704 3.44521 25.767 3.03365 28.2701C2.97409 28.6258 2.99741 28.9904 3.10179 29.3355C3.20617 29.6807 3.38879 29.9972 3.63544 30.2602C3.88209 30.5233 4.18611 30.7259 4.52386 30.8523C4.8616 30.9787 5.22395 31.0254 5.58271 30.9888H5.5949L11.6249 30.3307C11.6324 30.4076 11.6408 30.4779 11.6474 30.5426C11.7248 31.2774 12.0525 31.9632 12.5755 32.4851L15.5183 35.4298C16.0394 35.9535 16.7251 36.2816 17.4599 36.3588L17.6615 36.3804L17.0052 42.4029C17.0052 42.4029 17.0052 42.4104 17.0052 42.4151C16.9717 42.7395 17.0062 43.0672 17.1065 43.3775C17.2069 43.6878 17.3709 43.9737 17.588 44.2169C17.8052 44.4602 18.0707 44.6555 18.3676 44.7903C18.6645 44.9251 18.9863 44.9964 19.3124 44.9998C19.4427 44.9999 19.5729 44.9892 19.7015 44.9679C22.2186 44.5629 28.3124 43.0357 30.688 37.5935C31.3602 36.0504 31.6574 34.2138 31.574 32.1242C32.6996 31.2779 33.7633 30.352 34.7568 29.3538C37.8908 26.2357 40.8065 21.6738 42.7546 16.8363C44.6943 12.0213 45.4246 7.59354 44.7599 4.69291ZM34.723 21.0879C33.9527 21.859 32.971 22.3843 31.9021 22.5974C30.8331 22.8105 29.725 22.7017 28.7179 22.2848C27.7108 21.868 26.85 21.1618 26.2443 20.2556C25.6386 19.3494 25.3154 18.284 25.3154 17.194C25.3154 16.104 25.6386 15.0386 26.2443 14.1324C26.85 13.2262 27.7108 12.52 28.7179 12.1032C29.725 11.6863 30.8331 11.5775 31.9021 11.7906C32.971 12.0037 33.9527 12.529 34.723 13.3001C35.2393 13.8087 35.6494 14.4148 35.9292 15.0833C36.2091 15.7518 36.3532 16.4693 36.3532 17.194C36.3532 17.9187 36.2091 18.6362 35.9292 19.3047C35.6494 19.9732 35.2393 20.5794 34.723 21.0879Z" fill="#C15A2E"/>
<path d="M15.1809 36.2286C14.8182 36.1836 14.4515 36.2726 14.1497 36.4789C13.5506 36.8886 12.9488 37.2936 12.3413 37.6883C11.1122 38.4871 9.64219 37.0846 10.3725 35.8133L11.5116 33.8446C11.6744 33.6063 11.7651 33.3262 11.7727 33.0377C11.7804 32.7493 11.7046 32.4647 11.5546 32.2182C11.4046 31.9717 11.1867 31.7737 10.9269 31.648C10.6672 31.5222 10.3767 31.4741 10.0903 31.5092C8.8261 31.6691 7.65097 32.245 6.75 33.1461C6.40688 33.4902 5.36344 34.5346 4.80188 38.5142C4.64204 39.6574 4.54128 40.8079 4.5 41.9614C4.49487 42.1616 4.52988 42.3608 4.60296 42.5473C4.67604 42.7337 4.78572 42.9036 4.92552 43.047C5.06532 43.1904 5.23242 43.3044 5.41696 43.3821C5.6015 43.4599 5.79974 43.4999 6 43.4999H6.0375C7.19188 43.459 8.3434 43.3589 9.4875 43.1999C13.4691 42.6374 14.5134 41.593 14.8566 41.2499C15.7619 40.3485 16.3364 39.1679 16.4869 37.8992C16.5351 37.5046 16.4246 37.1069 16.1797 36.7936C15.9348 36.4803 15.5756 36.2771 15.1809 36.2286Z" fill="#C15A2E"/>
</svg>
