<svg width="68" height="68" viewBox="0 0 68 68" fill="none" xmlns="http://www.w3.org/2000/svg">
<path d="M52.3279 63.7501C51.8806 63.7518 51.4442 63.6124 51.0808 63.3516L33.9998 50.9682L16.9188 63.3516C16.5538 63.6163 16.1142 63.7581 15.6634 63.7565C15.2126 63.7548 14.774 63.6098 14.411 63.3425C14.048 63.0752 13.7794 62.6994 13.6441 62.2693C13.5088 61.8393 13.5137 61.3774 13.6582 60.9504L20.3201 41.2184L3.05447 29.3782C2.68049 29.122 2.39823 28.753 2.24893 28.3249C2.09963 27.8969 2.09112 27.4324 2.22464 26.9992C2.35816 26.566 2.62672 26.1868 2.99107 25.9171C3.35542 25.6474 3.79648 25.5013 4.24979 25.5001H25.5503L31.9784 5.71765C32.1169 5.29056 32.3871 4.9183 32.7502 4.65428C33.1134 4.39026 33.5508 4.24805 33.9998 4.24805C34.4488 4.24805 34.8862 4.39026 35.2494 4.65428C35.6125 4.9183 35.8827 5.29056 36.0212 5.71765L42.4493 25.5067H63.7498C64.2037 25.5065 64.6457 25.6516 65.0111 25.9208C65.3766 26.19 65.6462 26.5691 65.7806 27.0026C65.9149 27.4362 65.907 27.9013 65.7578 28.33C65.6087 28.7587 65.3262 29.1283 64.9517 29.3848L47.6795 41.2184L54.3374 60.9451C54.4452 61.2645 54.4756 61.6049 54.4259 61.9383C54.3762 62.2718 54.2479 62.5886 54.0516 62.8626C53.8553 63.1366 53.5966 63.36 53.2968 63.5144C52.9971 63.6687 52.665 63.7495 52.3279 63.7501Z" fill="white"/>
</svg>
