<svg width="48" height="48" viewBox="0 0 48 48" fill="none" xmlns="http://www.w3.org/2000/svg">
<path d="M36.9375 45C36.6217 45.0012 36.3137 44.9028 36.0572 44.7187L24 35.9775L11.9428 44.7187C11.6852 44.9055 11.3748 45.0056 11.0566 45.0045C10.7384 45.0033 10.4288 44.901 10.1726 44.7123C9.91636 44.5236 9.72678 44.2583 9.63126 43.9547C9.53574 43.6512 9.53922 43.3251 9.64121 43.0237L14.3437 29.0953L2.15621 20.7375C1.89223 20.5566 1.69298 20.2961 1.58759 19.994C1.48221 19.6919 1.4762 19.3639 1.57045 19.0581C1.6647 18.7524 1.85427 18.4847 2.11146 18.2943C2.36865 18.104 2.67998 18.0008 2.99996 18H18.0356L22.5731 4.0359C22.6708 3.73442 22.8616 3.47165 23.1179 3.28529C23.3743 3.09892 23.683 2.99854 24 2.99854C24.3169 2.99854 24.6257 3.09892 24.882 3.28529C25.1384 3.47165 25.3291 3.73442 25.4268 4.0359L29.9643 18.0047H45C45.3204 18.0045 45.6324 18.1069 45.8903 18.2969C46.1483 18.487 46.3386 18.7546 46.4335 19.0606C46.5283 19.3666 46.5227 19.695 46.4174 19.9976C46.3121 20.3002 46.1127 20.5611 45.8484 20.7422L33.6562 29.0953L38.3559 43.02C38.432 43.2454 38.4535 43.4857 38.4184 43.7211C38.3833 43.9564 38.2927 44.1801 38.1542 44.3735C38.0156 44.567 37.833 44.7247 37.6214 44.8336C37.4099 44.9425 37.1754 44.9995 36.9375 45Z" fill="#E8B923"/>
</svg>
