<svg width="26" height="25" viewBox="0 0 26 25" fill="none" xmlns="http://www.w3.org/2000/svg">
<path d="M15.0653 2.96656C14.6233 2.34312 13.8906 2 13 2C12.8607 1.99999 12.7242 2.03874 12.6058 2.11193C12.4873 2.18512 12.3915 2.28984 12.3292 2.41438C12.1886 2.69891 11.6144 3.53938 11.0078 4.42578C10.1641 5.66 9.11641 7.19469 8.41891 8.40078L8.41281 8.41156C7.45281 10.0752 6.99016 10.9864 6.8275 11.3178L6.78063 11.4116C6.71121 11.5138 6.61809 11.5978 6.50922 11.6563C6.40122 11.7164 6.27988 11.7487 6.15625 11.75L4.96984 11.75C3.91698 11.75 2.90723 12.1683 2.16274 12.9127C1.41825 13.6572 1 14.667 1 15.7198L1 17.5297C0.999938 18.0511 1.10258 18.5673 1.30205 19.049C1.50153 19.5307 1.79393 19.9684 2.16257 20.3371C2.53121 20.7058 2.96887 20.9982 3.45054 21.1978C3.93222 21.3973 4.44848 21.5 4.96984 21.5L7.25688 21.5C7.41654 21.5006 7.57257 21.5477 7.70594 21.6355C8.78125 22.3377 10.8128 23 13 23C13.3492 23 13.6652 22.9934 13.9502 22.9822C14.0181 22.9798 14.084 22.959 14.141 22.922C14.198 22.885 14.2439 22.8332 14.2737 22.7721C14.3035 22.7111 14.3162 22.6431 14.3104 22.5754C14.3046 22.5077 14.2806 22.4429 14.2408 22.3878L14.2361 22.3812C13.8344 21.8005 13.75 21.1719 13.75 20.75C13.7493 20.3502 13.8322 19.9548 13.9933 19.5889C14.0392 19.4852 14.0629 19.373 14.0629 19.2596C14.0629 19.1462 14.0392 19.034 13.9933 18.9303C13.8329 18.5572 13.7502 18.1554 13.7502 17.7493C13.7502 17.3432 13.8329 16.9414 13.9933 16.5683C14.039 16.4649 14.0625 16.3532 14.0625 16.2402C14.0625 16.1272 14.039 16.0154 13.9933 15.912C13.8337 15.5453 13.7514 15.1497 13.7514 14.7498C13.7514 14.3498 13.8337 13.9542 13.9933 13.5875C14.0413 13.4791 14.066 13.3619 14.066 13.2434C14.066 13.1249 14.0413 13.0077 13.9933 12.8994C13.8261 12.5231 13.743 12.1148 13.75 11.7031C13.75 11.3188 13.8438 10.7047 14.125 10.2411C14.1818 10.1456 14.2162 10.0383 14.2254 9.92757C14.2347 9.81679 14.2186 9.70536 14.1784 9.60172C14.1606 9.55484 14.1428 9.50469 14.1255 9.45313C14.0693 9.27791 14.0555 9.09189 14.0852 8.91031C14.2258 8.00375 14.5384 7.20922 14.8698 6.37156C15.0142 6.00688 15.1637 5.63 15.302 5.23438C15.5898 4.41078 15.5036 3.58437 15.0653 2.96656Z" fill="white"/>
<path d="M23.3471 16.1563L16.5896 15.8689C16.3735 15.852 15.4692 15.8122 15.4692 14.6562C15.4692 13.5402 16.3674 13.4689 16.6008 13.4431L23.3471 13.1563C23.941 13.1623 24.4692 13.8327 24.4692 14.6563C24.4692 15.4798 23.941 16.1502 23.3471 16.1563ZM16.7166 9.98422L21.72 9.59375C22.313 9.59375 22.9692 10.3756 22.9692 11.1819L22.9692 11.1973C22.9692 11.9623 22.4471 12.5858 21.803 12.5938L16.7194 12.5127C15.4692 12.3594 15.4692 11.6014 15.4692 11.2756C15.4692 10.2031 16.4911 10.003 16.7166 9.98422ZM20.9935 23L16.8042 22.5814C15.6567 22.5378 15.4692 21.7728 15.4692 21.2933C15.4692 20.4317 16.0978 20.1402 16.7194 20.1402L20.985 19.9995C21.6666 20.0103 22.2188 20.6792 22.2188 21.4995C22.2188 22.3198 21.6717 22.9841 20.9935 23ZM22.6041 19.6484L16.6791 19.3573C16.2389 19.3278 15.4692 19.2167 15.4692 18.1213C15.4692 17.5588 15.6731 16.9208 16.6411 16.8308L22.6031 16.6489C23.22 16.6555 23.7192 17.2813 23.7192 18.1208C23.7192 18.9603 23.22 19.6409 22.6041 19.648L22.6041 19.6484Z" fill="white"/>
<path d="M6.93107 11.3691L6.98082 11.2715C6.90883 11.421 6.7911 11.5448 6.64404 11.6255C6.75939 11.564 6.85787 11.4761 6.93107 11.3691Z" fill="white"/>
</svg>
