<svg width="24" height="24" viewBox="0 0 24 24" fill="none" xmlns="http://www.w3.org/2000/svg">
<g clip-path="url(#clip0_102_19321)">
<path d="M9.16641 23.2523C8.92734 23.2523 8.68828 23.1633 8.50547 22.9805L6.43828 20.9086C6.09609 20.5711 6.07266 20.0133 6.38672 19.643C6.85547 19.0992 6.85547 18.3117 6.38672 17.768C5.87109 17.168 4.96172 17.0977 4.35703 17.6133C3.98672 17.9273 3.42891 17.9039 3.09141 17.5617L1.02422 15.4945C0.658594 15.1289 0.658594 14.5383 1.02422 14.1773L9.48047 5.72109C9.68203 5.51953 9.93516 5.36484 10.207 5.27109C10.3148 5.23359 10.3992 5.14922 10.432 5.04609C10.5211 4.77422 10.6805 4.52109 10.882 4.31953L14.1773 1.02422C14.543 0.658594 15.1336 0.658594 15.4945 1.02422L17.5664 3.09609C17.9086 3.43359 17.932 3.99141 17.618 4.36172C17.1305 4.92891 17.1633 5.78672 17.6883 6.31641C18.218 6.84141 19.0758 6.87422 19.643 6.38672C20.0133 6.06797 20.5711 6.09141 20.9133 6.43828L22.9805 8.50547C23.3461 8.87109 23.3461 9.46172 22.9805 9.82266L19.6852 13.118C19.4836 13.3195 19.2305 13.4742 18.9586 13.568C18.8508 13.6055 18.7664 13.6898 18.7336 13.793C18.6445 14.0648 18.4852 14.318 18.2836 14.5195L9.82266 22.9805C9.64453 23.1586 9.40547 23.2523 9.16641 23.2523ZM7.83516 20.1867L9.16641 21.518L17.2195 13.4648C17.257 13.4273 17.2898 13.3758 17.3039 13.3242C17.4867 12.7711 17.9273 12.3305 18.4805 12.1477C18.532 12.1289 18.5836 12.1008 18.6211 12.0633L21.518 9.16641L20.1914 7.83984C19.7133 8.12109 19.1648 8.25703 18.6023 8.23828C17.8617 8.21016 17.1633 7.90547 16.6336 7.38516C16.1086 6.86016 15.8039 6.16172 15.7758 5.42109C15.7523 4.85859 15.893 4.31016 16.1742 3.82734L14.8383 2.48672L11.9414 5.38359C11.9039 5.42109 11.8711 5.47266 11.857 5.52422C11.6742 6.07734 11.2336 6.51797 10.6805 6.70078C10.6289 6.71953 10.5773 6.74766 10.5398 6.78984L2.48672 14.8383L3.81797 16.1648C5.01797 15.4664 6.58828 15.6961 7.52578 16.7883C7.98516 17.3227 8.23359 18.0023 8.23359 18.7008C8.23359 19.2305 8.09766 19.7414 7.83516 20.1867ZM4.15078 16.5023C4.15078 16.5023 4.15547 16.507 4.15078 16.5023V16.5023ZM19.8492 7.49766C19.8492 7.49766 19.8539 7.49766 19.8492 7.49766V7.49766ZM16.507 4.15547C16.507 4.15547 16.507 4.16016 16.507 4.15547V4.15547Z" fill="#21272A"/>
<path d="M11.7445 7.33359C11.5523 7.33359 11.3601 7.25859 11.2148 7.11328L10.4414 6.33984C10.1507 6.04922 10.1507 5.57109 10.4414 5.28047C10.732 4.98984 11.2101 4.98984 11.5007 5.28047L12.2742 6.05391C12.5648 6.34453 12.5648 6.82266 12.2742 7.11328C12.1289 7.26328 11.9367 7.33359 11.7445 7.33359Z" fill="#21272A"/>
<path d="M13.8071 9.40077C13.6149 9.40077 13.4227 9.32577 13.2774 9.18046L12.7618 8.66483C12.4665 8.37421 12.4665 7.89608 12.7618 7.60546C13.0524 7.31014 13.5305 7.31014 13.8211 7.60546L14.3368 8.12108C14.6321 8.41171 14.6321 8.88983 14.3368 9.18046C14.1915 9.32577 13.9993 9.40077 13.8071 9.40077Z" fill="#21272A"/>
<path d="M15.8695 11.4632C15.6773 11.4632 15.4851 11.3882 15.3398 11.2429L14.8242 10.7273C14.5335 10.432 14.5335 9.95854 14.8242 9.66792C15.1195 9.37729 15.5929 9.37729 15.8835 9.66792L16.3992 10.1835C16.6898 10.4789 16.6898 10.9523 16.3992 11.2429C16.2539 11.3882 16.0617 11.4632 15.8695 11.4632Z" fill="#21272A"/>
<path d="M18.1944 13.7835C18.0022 13.7835 17.8101 13.7085 17.6647 13.5632L16.8913 12.7898C16.6007 12.4992 16.6007 12.021 16.8913 11.7304C17.1819 11.4398 17.6601 11.4398 17.9507 11.7304L18.7241 12.5039C19.0147 12.7945 19.0147 13.2726 18.7241 13.5632C18.5788 13.7085 18.3866 13.7835 18.1944 13.7835Z" fill="#21272A"/>
</g>
<defs>
<clipPath id="clip0_102_19321">
<rect width="24" height="24" fill="white"/>
</clipPath>
</defs>
</svg>
