<svg width="24" height="24" viewBox="0 0 24 24" fill="none" xmlns="http://www.w3.org/2000/svg">
<path d="M12.375 19.5089C12.1352 19.5088 11.9017 19.4317 11.7089 19.2891L11.678 19.2652L7.39078 15.7495H4.125C3.82663 15.7495 3.54048 15.631 3.3295 15.42C3.11853 15.2091 3 14.9229 3 14.6245V9.375C3 9.07664 3.11853 8.79049 3.3295 8.57951C3.54048 8.36853 3.82663 8.25 4.125 8.25H7.38984L11.677 4.73438L11.708 4.71047C11.8756 4.58706 12.0741 4.51257 12.2815 4.49528C12.489 4.47799 12.6971 4.51858 12.8828 4.61254C13.0686 4.70649 13.2246 4.85013 13.3335 5.02747C13.4425 5.20481 13.5001 5.4089 13.5 5.61704V18.383C13.5 18.6813 13.3815 18.9675 13.1705 19.1785C12.9595 19.3894 12.6734 19.508 12.375 19.508V19.5089Z" fill="#21272A"/>
<path d="M16.5001 15.75C16.3722 15.7499 16.2464 15.7172 16.1347 15.6548C16.023 15.5924 15.9292 15.5025 15.8621 15.3936C15.7949 15.2847 15.7568 15.1604 15.7512 15.0326C15.7456 14.9049 15.7728 14.7778 15.8302 14.6634C16.2751 13.7775 16.5006 12.8822 16.5006 12C16.5006 11.0925 16.2821 10.2225 15.8326 9.34078C15.7465 9.16411 15.7331 8.96068 15.7955 8.77428C15.8578 8.58787 15.9908 8.43339 16.1659 8.34407C16.341 8.25474 16.5441 8.23772 16.7317 8.29666C16.9192 8.3556 17.076 8.48579 17.1685 8.65922C17.7282 9.7575 18.0001 10.8502 18.0001 12C18.0001 13.117 17.7188 14.2397 17.1704 15.3366C17.108 15.4609 17.0123 15.5653 16.8939 15.6383C16.7755 15.7114 16.6392 15.75 16.5001 15.75Z" fill="#21272A"/>
<path d="M18.7499 18C18.6182 18.0001 18.4888 17.9655 18.3747 17.8998C18.2606 17.834 18.1658 17.7393 18.0999 17.6253C18.034 17.5112 17.9993 17.3819 17.9993 17.2502C17.9992 17.1185 18.0339 16.9891 18.0997 16.875C18.9843 15.3305 19.4999 14.0367 19.4999 12C19.4999 9.93187 18.9871 8.6475 18.1016 7.12734C18.0102 6.95594 17.9889 6.75576 18.0421 6.56895C18.0954 6.38214 18.219 6.22327 18.387 6.12578C18.555 6.02829 18.7543 5.99978 18.9429 6.04627C19.1315 6.09275 19.2947 6.2106 19.3982 6.375C20.3868 8.07 20.9999 9.60375 20.9999 12C20.9999 14.3606 20.3877 15.9019 19.4005 17.625C19.3346 17.7392 19.2398 17.834 19.1255 17.8998C19.0113 17.9656 18.8817 18.0002 18.7499 18Z" fill="#21272A"/>
</svg>
